<svg xmlns="http://www.w3.org/2000/svg" xmlns:xlink="http://www.w3.org/1999/xlink" version="1.1" enable-background="new 0 0 1000 1000" xml:space="preserve" width="1000" height="1000"><rect id="backgroundrect" width="100%" height="100%" x="0" y="0" fill="none" stroke="none"/>
<metadata> Svg Vector Icons : http://www.onlinewebfonts.com/icon </metadata>

<g class="currentLayer" style=""><title>Layer 1</title><g id="svg_1" class="selected" fill="#ffffff" fill-opacity="1"><path d="M122.7,255.6c12.1-6.3,27.2-1.5,33.2,10.8c1.8,3.3,143.8,276.1,391.3,425.2c171.2,103.3,346,185.1,441.3,227.3c8.6-33.4-17.3-48-91.5-122.2C853.4,753.2,790,673,722.9,591.3c-67.6,23.6-151.1,24.9-168.2,24.9c-0.5,0-1,0-1.5,0c-13.6,0-24.6-11.1-24.6-24.9c0-13.6,11.1-24.6,24.6-24.6c0,0,0,0,0.3,0c2.8,0,42-0.3,86.3-6.8c17.9-2.8,34.2-6,48.8-10.1c-16.8-20.1-33.7-40-50.3-58.8c-34.2,4-70.2,5.3-102.3,5.3c-58.8,0-105.9-4.3-109.6-4.8c-13.6-1.3-23.6-13.3-22.1-26.9c1.3-13.6,13.3-23.6,26.9-22.4c1.3,0,83.7,7.8,165.7,2.8c-27.9-29.7-54.6-55.8-79-75.2c-116.9-94-288.4-168.2-402.1-163.2l-64.4-166C47.2,30,35.4,24.5,24.6,28C13,31.8,7,44.6,11.5,55.9l64.4,167c0,0-178,260.5,171.5,524C554.9,979,867.7,994.1,956,958.4c-99.1-44.3-268.6-124.7-434.8-224.8C261,576.9,117.4,300.3,111.3,288.5C105.8,276.7,110.6,261.9,122.7,255.6z" id="svg_2" fill="#ffffff" fill-opacity="1"/></g></g></svg>