<svg xmlns="http://www.w3.org/2000/svg" xmlns:xlink="http://www.w3.org/1999/xlink" version="1.1" width="108.33599853515625" height="108.33599853515625" style="enable-background:new 0 0 108.336 108.336;" xml:space="preserve"><rect id="backgroundrect" width="100%" height="100%" x="0" y="0" fill="none" stroke="none"/>
















<g class="currentLayer" style=""><title>Layer 1</title><g id="svg_1" class="selected" fill="#ffffff" fill-opacity="1">
	<path d="M54.168,0C24.3,0,0,24.3,0,54.168c0,29.869,24.3,54.168,54.168,54.168s54.168-24.299,54.168-54.168   C108.336,24.3,84.036,0,54.168,0z M91.867,91.826c-10.415,10.374-22.926,15.559-37.532,15.559c-3.193,0-5.894-5.186-8.103-15.559   c-2.21-10.373-3.315-22.883-3.315-37.533c0-14.607,1.105-27.108,3.315-37.5c2.209-10.394,4.909-15.592,8.103-15.592   c14.606,0,27.117,5.198,37.532,15.592c10.41,10.392,15.617,22.893,15.617,37.5C107.484,68.943,102.277,81.453,91.867,91.826z" id="svg_2" fill="#ffffff" fill-opacity="1"/>
</g><g id="svg_3">
</g><g id="svg_4">
</g><g id="svg_5">
</g><g id="svg_6">
</g><g id="svg_7">
</g><g id="svg_8">
</g><g id="svg_9">
</g><g id="svg_10">
</g><g id="svg_11">
</g><g id="svg_12">
</g><g id="svg_13">
</g><g id="svg_14">
</g><g id="svg_15">
</g><g id="svg_16">
</g><g id="svg_17">
</g></g></svg>