<svg xmlns="http://www.w3.org/2000/svg" xmlns:xlink="http://www.w3.org/1999/xlink" version="1.1" width="108.336" height="108.336" style="" xml:space="preserve"><rect id="backgroundrect" width="100%" height="100%" x="0" y="0" fill="none" stroke="none"/>
















<g class="currentLayer" style=""><title>Layer 1</title><g id="svg_1" class="selected" fill="#ffffff" fill-opacity="1">
	<path d="M54.168,0C24.3,0,0,24.3,0,54.168c0,29.869,24.3,54.168,54.168,54.168s54.168-24.299,54.168-54.168   C108.336,24.3,84.036,0,54.168,0z M91.639,91.611c-10.412,10.371-22.904,15.559-37.471,15.559c8.186,0,15.211-5.188,21.083-15.559   c5.871-10.373,8.808-22.885,8.808-37.532c0-14.608-2.937-27.107-8.808-37.503C69.38,6.184,62.354,0.987,54.168,0.987   c14.566,0,27.059,5.197,37.471,15.588c10.413,10.396,15.622,22.895,15.622,37.503C107.262,68.727,102.053,81.238,91.639,91.611z" id="svg_2" fill="#ffffff" fill-opacity="1"/>
</g><g id="svg_3">
</g><g id="svg_4">
</g><g id="svg_5">
</g><g id="svg_6">
</g><g id="svg_7">
</g><g id="svg_8">
</g><g id="svg_9">
</g><g id="svg_10">
</g><g id="svg_11">
</g><g id="svg_12">
</g><g id="svg_13">
</g><g id="svg_14">
</g><g id="svg_15">
</g><g id="svg_16">
</g><g id="svg_17">
</g></g></svg>