<svg xmlns="http://www.w3.org/2000/svg" version="1.0" width="1280.000000" height="774.000000" preserveAspectRatio="xMidYMid meet"><rect id="backgroundrect" width="100%" height="100%" x="0" y="0" fill="none" stroke="none"/>
<metadata>
Created by potrace 1.15, written by Peter Selinger 2001-2017
</metadata>

<g class="currentLayer" style=""><title>Layer 1</title><g transform="translate(0,774) scale(0.10000000149011612,-0.10000000149011612) " fill="#ffffff" stroke="none" id="svg_1" class="selected" fill-opacity="1">
<path d="M2403.103448867798,7620 c0,-5 5,-10 11,-10 c5,0 7,5 4,10 c-3,6 -8,10 -11,10 c-2,0 -4,-4 -4,-10 z" id="svg_2" fill="#ffffff" fill-opacity="1"/>
<path d="M2404.103448867798,7569 c-1,-9 -41,-63 -90,-121 c-57,-66 -86,-109 -80,-115 c5,-5 12,-67 15,-138 l5,-128 l-80,7 l-81,6 l-16,-37 c-19,-45 -21,-71 -11,-135 l8,-47 l-40,-11 c-35,-9 -40,-14 -46,-49 c-7,-43 -8,-44 -133,-82 c-41,-12 -76,-28 -79,-36 c-3,-7 -14,-13 -25,-13 c-11,0 -29,-5 -41,-12 c-38,-20 -181,-69 -212,-72 c-16,-2 -31,-8 -33,-15 c-2,-6 -10,-11 -19,-11 c-8,0 -27,-7 -41,-15 c-15,-8 -67,-30 -117,-48 c-49,-19 -117,-49 -150,-67 c-33,-18 -98,-53 -145,-77 c-47,-25 -89,-48 -95,-53 c-9,-7 -61,-25 -180,-65 c-74,-24 -106,-42 -166,-91 c-30,-24 -63,-44 -75,-44 c-12,0 -27,-7 -34,-15 c-7,-8 -18,-15 -25,-15 c-6,0 -53,-29 -103,-65 c-50,-36 -96,-65 -103,-65 c-6,0 -58,-30 -115,-67 l-103,-68 l-1,-2902 l0,-2903 l6150,0 c3383,0 6150,2 6150,4 c0,2 -27,20 -60,40 c-32,20 -68,48 -78,61 c-11,14 -26,25 -34,25 c-8,0 -25,11 -38,25 c-15,15 -30,23 -41,20 c-9,-3 -34,1 -55,10 c-22,8 -57,14 -79,13 c-36,-3 -40,0 -45,24 c-4,20 -25,40 -80,76 c-41,27 -85,63 -97,80 c-14,18 -35,33 -55,37 c-18,4 -53,22 -78,39 c-25,17 -79,52 -120,78 c-41,26 -91,63 -109,82 c-19,20 -43,36 -52,36 c-21,0 -92,55 -188,148 c-41,40 -80,72 -86,72 c-6,0 -22,11 -35,25 c-13,14 -29,25 -35,25 c-6,0 -22,11 -35,25 c-13,14 -30,25 -38,25 c-18,0 -192,179 -192,197 c0,7 -6,13 -14,13 c-7,0 -20,10 -29,23 c-8,12 -41,40 -73,62 c-33,22 -65,48 -72,57 c-7,10 -23,18 -35,19 c-12,0 -36,10 -53,22 c-17,12 -56,38 -86,59 c-31,20 -70,54 -88,76 c-17,22 -40,42 -51,45 c-10,3 -22,13 -26,24 c-3,10 -10,20 -15,24 c-4,3 -12,29 -18,58 c-14,74 -45,139 -72,152 c-13,5 -34,29 -46,52 c-15,28 -37,51 -66,67 c-31,16 -47,33 -53,54 c-10,36 -83,81 -148,92 c-22,3 -62,15 -90,25 c-27,11 -80,26 -116,33 c-82,18 -163,58 -299,149 l-105,70 l0,66 l0,66 l-40,10 c-47,12 -105,50 -105,70 c0,25 -57,81 -102,100 c-39,17 -76,50 -159,141 c-72,78 -140,123 -189,124 c-49,1 -194,94 -203,131 c-3,10 -13,22 -24,25 c-39,13 -68,30 -97,60 c-17,17 -47,39 -66,49 c-35,18 -64,40 -139,103 c-21,17 -48,32 -60,32 c-11,0 -21,4 -21,8 c0,10 -87,102 -97,102 c-10,0 -96,43 -103,51 c-3,4 -29,18 -57,33 c-29,14 -53,31 -53,36 c0,6 -7,10 -15,10 c-25,0 -117,50 -150,80 c-16,16 -50,34 -75,40 c-45,12 -80,35 -80,53 c0,5 -21,32 -46,60 c-46,51 -86,120 -97,167 c-4,14 -15,35 -25,46 c-11,11 -23,30 -26,42 c-4,12 -13,22 -19,22 c-15,0 -68,64 -92,110 c-53,106 -92,149 -165,183 c-21,10 -45,34 -60,60 c-34,58 -136,151 -184,168 c-40,14 -82,50 -123,106 c-13,17 -42,37 -70,48 c-26,10 -55,25 -63,35 c-8,10 -22,21 -31,26 c-9,5 -62,52 -118,104 c-56,52 -114,101 -129,109 c-15,7 -36,22 -48,32 c-22,21 -123,56 -239,84 c-70,17 -175,68 -175,85 c0,5 -40,39 -90,75 c-64,47 -92,75 -101,99 c-8,23 -22,37 -45,45 c-17,6 -34,18 -37,25 c-3,8 -27,42 -53,75 c-36,46 -66,72 -119,101 c-40,22 -103,64 -140,94 c-56,44 -76,54 -116,58 c-27,3 -58,13 -68,23 c-11,9 -25,14 -30,10 c-6,-3 -14,2 -17,12 c-15,46 -58,123 -69,123 c-6,0 -22,10 -35,23 c-14,12 -29,23 -35,23 c-5,1 -16,2 -23,3 c-9,1 -11,8 -7,22 c5,13 1,25 -10,32 c-13,11 -17,43 -21,207 c-4,132 -9,197 -17,202 c-7,4 -14,0 -17,-10 c-6,-20 -40,-26 -40,-6 c0,8 8,14 18,15 c12,0 10,3 -8,11 c-25,10 -475,23 -452,12 c18,-9 14,-31 -7,-37 c-15,-4 -18,0 -16,18 c2,18 -4,24 -28,29 c-44,9 -47,8 -47,-14 c0,-13 -7,-20 -20,-20 c-11,0 -20,7 -20,15 c0,18 16,20 23,3 c4,-9 6,-7 6,3 c1,21 -74,33 -176,30 l-73,-2 l0,140 c0,132 -1,141 -19,141 c-16,0 -20,10 -25,58 c-3,31 -5,92 -5,135 c1,77 1,78 -54,170 c-30,51 -66,113 -79,139 c-24,50 -38,60 -38,29 c0,-10 -16,-43 -35,-72 c-20,-29 -52,-81 -72,-116 l-35,-64 l-2,-141 c-2,-119 -4,-142 -19,-153 c-14,-10 -17,-29 -17,-102 l0,-90 l-30,5 c-21,3 -30,10 -30,23 c0,14 -7,19 -27,19 c-30,0 -293,29 -331,36 c-22,4 -23,8 -21,81 c2,73 1,76 -24,90 c-25,12 -27,19 -27,74 c0,46 -5,68 -21,90 c-18,26 -26,29 -74,29 c-34,0 -59,5 -69,15 c-8,8 -19,15 -25,15 c-10,0 -13,39 -15,216 c-1,60 -1,61 -79,157 c-43,53 -82,107 -87,120 c-6,14 -9,16 -9,6 zm1066,-746 c-3,-10 -5,-4 -5,12 c0,17 2,24 5,18 c2,-7 2,-21 0,-30 zm523,-343 c0,-5 -4,-10 -10,-10 c-5,0 -10,5 -10,10 c0,6 5,10 10,10 c6,0 10,-4 10,-10 zm74,-5 c-4,-8 -8,-15 -10,-15 c-2,0 -4,7 -4,15 c0,8 4,15 10,15 c5,0 7,-7 4,-15 zm56,2 c0,-7 -9,-13 -20,-14 c-11,-1 -20,4 -20,13 c0,8 9,14 20,14 c11,0 20,-6 20,-13 zm58,-4 c-2,-10 -11,-18 -21,-19 c-11,-1 -12,0 -3,3 c8,2 12,11 9,19 c-3,8 0,14 7,14 c6,0 10,-8 8,-17 zm62,13 c0,-7 -31,-36 -39,-36 c-3,0 -7,9 -7,20 c0,14 7,20 23,20 c13,0 23,-2 23,-4 zm11,-19 c-10,-9 -11,-8 -5,6 c3,10 9,15 12,12 c3,-3 0,-11 -7,-18 zm69,8 c0,-8 -9,-15 -20,-15 c-11,0 -20,7 -20,15 c0,8 9,15 20,15 c11,0 20,-7 20,-15 zm60,-5 c0,-5 -7,-10 -16,-10 c-8,0 -12,5 -9,10 c3,6 10,10 16,10 c5,0 9,-4 9,-10 zm50,-6 c0,-9 -7,-14 -17,-12 c-25,5 -28,28 -4,28 c12,0 21,-6 21,-16 zm17,-6 c-3,-8 -6,-5 -6,6 c-1,11 2,17 5,13 c3,-3 4,-12 1,-19 zm-529,-5 c-10,-2 -26,-2 -35,0 c-10,3 -2,5 17,5 c19,0 27,-2 18,-5 zm59,1 c-3,-3 -12,-4 -19,-1 c-8,3 -5,6 6,6 c11,1 17,-2 13,-5 zm523,-149 c0,-58 -2,-65 -20,-65 c-13,0 -20,7 -20,19 c0,10 -3,39 -6,65 c-7,45 -6,46 20,46 c25,0 26,-1 26,-65 zm8,-168 c3,-42 1,-47 -17,-47 c-18,0 -21,6 -21,51 c0,43 3,50 18,47 c13,-2 18,-15 20,-51 zm-23,-97 c3,-5 1,-10 -4,-10 c-6,0 -11,5 -11,10 c0,6 2,10 4,10 c3,0 8,-4 11,-10 z" id="svg_3" fill="#ffffff" fill-opacity="1"/>
<path d="M3458.103448867798,7370 c-3,-5 -1,-10 4,-10 c6,0 11,5 11,10 c0,6 -2,10 -4,10 c-3,0 -8,-4 -11,-10 z" id="svg_4" fill="#ffffff" fill-opacity="1"/>
</g></g></svg>