<?xml version="1.0" encoding="utf-8"?>
<!-- Svg Vector Icons : http://www.onlinewebfonts.com/icon -->
<!DOCTYPE svg PUBLIC "-//W3C//DTD SVG 1.1//EN" "http://www.w3.org/Graphics/SVG/1.1/DTD/svg11.dtd">
<svg version="1.1" xmlns="http://www.w3.org/2000/svg" xmlns:xlink="http://www.w3.org/1999/xlink" x="0px" y="0px" viewBox="0 0 1000 1000" enable-background="new 0 0 1000 1000" xml:space="preserve">
<metadata> Svg Vector Icons : http://www.onlinewebfonts.com/icon </metadata>
<g><path d="M183.8,23.7c107.3-16.7,233.9-6.9,371-6.9c194.1,0,362.4-18.3,412.2,103.1c27.5,67.1,13.7,144.9,13.7,192.4c0,145.2,33.5,494.4-27.5,590.9c-10.6,16.7-47.7,50.3-75.6,61.8c-90.2,37.1-256.8,13.7-377.9,13.7c-205.6,0-410.3,34.6-467.2-103.1c-41.1-99.4-13.7-423.6-13.7-577.1c0-34.2-12-117.1,13.7-178.6C55.2,65.9,111.3,35,183.8,23.7z M740.3,394.7C817,140.3,440.6,204.9,266.3,202.4c0,201.5,0,403.1,0,604.6c155.6-10.8,388.2,34.8,474.1-61.8c36.1-40.6,56.8-124.1,20.6-199.3c-18-37.4-54.2-43.4-89.3-75.6C710.4,447.4,728.7,433.4,740.3,394.7z"/><path d="M403.7,298.6c53.6,19.6,155-8.4,199.3,20.6c64.7,122.2-84,136.9-199.3,123.7C403.7,394.7,403.7,346.6,403.7,298.6z"/><path d="M630.4,676.4c-46.8,37.9-143.7,25.8-226.7,27.5c0-55,0-109.9,0-164.9C535.2,524.5,696.6,537.1,630.4,676.4z"/></g>
</svg>