<?xml version="1.0" standalone="no"?>
<!DOCTYPE svg PUBLIC "-//W3C//DTD SVG 20010904//EN"
 "http://www.w3.org/TR/2001/REC-SVG-20010904/DTD/svg10.dtd">
<svg version="1.0" xmlns="http://www.w3.org/2000/svg"
 width="1280.000000pt" height="640.000000pt" viewBox="0 0 1280.000000 640.000000"
 preserveAspectRatio="xMidYMid meet">
<metadata>
Created by potrace 1.15, written by Peter Selinger 2001-2017
</metadata>
<g transform="translate(0.000000,640.000000) scale(0.100000,-0.100000)"
fill="#000000" stroke="none">
<path d="M5150 6264 c-96 -31 -107 -34 -127 -34 -25 0 -49 -25 -33 -35 6 -4
67 1 136 10 146 20 234 13 401 -31 54 -15 139 -37 188 -51 50 -13 144 -32 210
-43 124 -20 144 -30 146 -74 4 -84 -31 -169 -100 -241 -92 -95 -181 -259 -181
-332 0 -85 -26 -81 -140 19 -139 121 -165 140 -250 180 -129 61 -242 85 -625
133 -322 41 -619 87 -870 135 -55 11 -192 36 -305 56 -113 19 -260 49 -326 65
-174 41 -418 84 -644 114 -107 14 -201 28 -208 30 -7 3 -77 10 -154 16 -78 5
-184 19 -236 30 -79 16 -136 19 -361 19 -329 0 -537 -13 -751 -46 -239 -37
-321 -56 -476 -115 -181 -68 -193 -74 -300 -163 -122 -102 -139 -140 -138
-306 1 -120 18 -209 54 -280 55 -108 376 -492 523 -626 131 -119 495 -384 631
-460 56 -31 137 -81 181 -112 97 -68 270 -151 408 -196 56 -19 132 -45 168
-59 89 -34 208 -56 348 -63 64 -3 122 -8 129 -10 8 -2 -5 -22 -35 -52 -114
-114 -213 -275 -213 -347 0 -77 46 -156 169 -290 42 -46 98 -108 124 -139 116
-134 343 -269 617 -367 94 -34 301 -87 390 -100 120 -18 491 -15 670 5 227 26
552 85 700 126 74 21 166 45 203 55 195 47 437 181 600 333 99 91 134 118 143
109 3 -3 -1 -34 -10 -69 -20 -79 -20 -160 -2 -222 13 -43 12 -58 -10 -179 -17
-91 -23 -149 -19 -187 3 -30 9 -138 13 -240 6 -168 9 -189 31 -230 23 -44 23
-49 17 -209 l-7 -163 36 -40 36 -40 -7 -114 -7 -114 35 -42 35 -43 -13 -50
c-23 -86 -18 -137 21 -211 26 -48 35 -78 35 -113 0 -26 13 -84 29 -131 16 -47
37 -121 45 -165 35 -176 114 -374 165 -418 58 -49 101 -36 176 52 46 55 57 75
84 169 17 59 42 157 56 217 14 61 43 149 65 197 50 107 76 219 88 368 7 99 12
121 33 149 22 30 24 45 30 179 5 134 8 152 34 207 24 50 29 74 30 145 1 51 8
102 18 128 25 66 30 130 18 228 -25 215 -25 212 1 216 51 7 60 148 24 353 -13
72 -13 82 2 105 12 18 17 55 20 128 3 72 8 102 17 102 6 0 66 -58 133 -128
116 -124 242 -224 319 -253 15 -5 59 -25 98 -43 167 -79 622 -200 895 -238
142 -19 208 -22 470 -22 269 0 321 2 439 22 152 25 376 87 499 138 131 54 341
162 408 210 119 84 226 219 282 356 30 75 40 187 22 242 -26 80 -184 200 -385
291 -65 30 -75 38 -70 55 5 15 0 22 -18 29 -34 13 -65 55 -82 114 -20 68 -20
107 2 107 9 0 44 -15 77 -33 34 -19 82 -42 108 -51 53 -21 74 -39 83 -77 8
-33 -17 -61 -54 -58 -48 4 -81 -1 -81 -11 0 -13 124 -13 347 0 216 13 313 30
466 82 218 73 382 159 712 373 28 18 79 48 115 68 151 82 325 230 652 556
l316 316 46 96 c26 53 51 122 56 155 14 85 12 175 -5 204 -8 14 -18 34 -23 45
-14 31 -117 127 -165 154 -65 37 -338 158 -470 207 -132 49 -316 96 -577 148
-170 33 -181 34 -370 31 -266 -5 -403 -14 -482 -30 -36 -8 -108 -19 -160 -25
-89 -10 -161 -21 -588 -89 -102 -16 -212 -33 -245 -36 -33 -4 -80 -11 -104
-16 -24 -5 -199 -32 -390 -60 -190 -27 -386 -56 -436 -64 -49 -8 -189 -22
-310 -30 -121 -9 -263 -22 -315 -30 -52 -8 -178 -27 -280 -41 -278 -39 -388
-78 -562 -200 -42 -30 -79 -54 -83 -54 -4 0 -27 -18 -52 -40 -44 -39 -107 -61
-122 -44 -4 5 -15 36 -25 69 -24 78 -112 206 -196 285 -14 14 -32 43 -39 65
-8 22 -24 54 -37 72 -39 52 -30 88 25 102 20 5 86 17 146 26 61 9 150 31 200
50 115 42 300 94 362 101 30 4 72 0 109 -10 70 -18 134 -21 134 -6 0 6 -8 10
-17 10 -9 0 -51 12 -92 26 -65 23 -93 27 -191 27 -97 0 -123 -3 -164 -21 -49
-22 -283 -72 -428 -92 -87 -12 -109 -6 -189 55 -85 64 -287 97 -362 59 -18 -9
-52 -30 -76 -47 l-44 -30 -126 7 c-178 10 -269 23 -404 57 -227 57 -397 72
-487 43z m1281 -86 c7 -13 9 -41 5 -73 -6 -50 -5 -53 19 -57 13 -3 27 -3 30 0
3 3 5 36 5 75 0 85 16 86 47 1 13 -34 22 -50 22 -36 1 39 28 24 40 -23 8 -32
15 -43 25 -39 20 7 43 -31 52 -83 8 -52 0 -54 -68 -19 -73 37 -172 50 -260 36
-40 -7 -90 -19 -112 -26 -52 -19 -92 -18 -100 2 -7 19 13 102 27 111 5 3 15
-1 22 -10 10 -14 15 -10 40 28 23 37 61 66 69 53 1 -1 18 -22 39 -46 l37 -42
0 66 c0 69 12 104 35 104 8 0 19 -10 26 -22z m-4971 -23 c19 -38 28 -45 63
-45 32 0 33 -8 7 -61 l-21 -39 -28 21 c-39 29 -75 20 -90 -22 l-11 -31 -70 4
c-38 2 -75 9 -81 15 -16 16 3 83 37 136 22 33 29 37 67 37 23 0 49 5 57 10 25
17 54 7 70 -25z m491 -5 c15 -9 19 -22 19 -68 0 -31 -3 -81 -7 -111 l-6 -54
-106 7 c-220 14 -261 48 -148 120 29 19 65 53 80 75 27 40 28 41 88 41 33 0
69 -5 80 -10z m-942 -51 c6 -17 25 -47 42 -66 45 -52 29 -62 -86 -52 -53 5
-137 4 -205 -3 -166 -15 -190 -15 -200 2 -13 22 4 43 59 74 65 35 228 72 328
75 49 1 52 0 62 -30z m1284 20 c45 -24 49 -63 12 -107 -16 -20 -25 -42 -25
-66 0 -39 -2 -40 -90 -50 -61 -7 -114 6 -118 27 -2 10 6 37 17 60 12 24 21 52
21 63 0 58 121 105 183 73z m9221 -60 c66 -11 135 -27 153 -36 27 -12 39 -13
59 -4 33 15 32 16 48 -24 14 -33 32 -125 25 -125 -2 0 -42 7 -89 16 -47 8
-129 19 -183 24 l-98 8 -36 42 c-38 44 -78 52 -94 18 -5 -10 -13 -26 -18 -35
-9 -19 -49 -28 -68 -15 -6 4 -18 29 -24 55 -10 37 -10 50 -1 59 9 9 15 9 24 0
7 -7 28 -12 48 -12 29 0 41 6 59 31 19 26 28 30 50 24 14 -3 80 -15 145 -26z
m-8779 1 c71 -9 101 -29 90 -58 -3 -8 -5 -25 -5 -39 0 -16 -7 -27 -20 -30 -10
-3 -26 -16 -35 -30 -14 -21 -22 -24 -48 -19 -18 3 -89 11 -160 16 -186 15
-217 34 -138 85 22 13 54 37 73 53 18 16 40 31 47 34 18 5 98 0 196 -12z
m8239 14 c34 -5 46 -11 46 -23 0 -10 11 -32 25 -51 28 -38 32 -68 10 -76 -15
-6 -273 13 -312 22 -24 6 -68 96 -59 120 4 11 31 14 124 14 66 0 140 -3 166
-6z m-436 -69 c34 -31 44 -46 36 -54 -12 -13 -89 -26 -206 -37 -69 -6 -78 -4
-85 12 -9 23 25 82 58 99 33 18 99 31 127 27 13 -3 44 -24 70 -47z m-7458 -14
c0 -49 -22 -127 -43 -149 -18 -20 -28 -23 -59 -18 -50 8 -88 26 -88 42 0 7 13
28 28 46 16 18 37 48 47 66 18 29 24 32 67 32 40 0 48 -3 48 -19z m7070 9 c22
-12 43 -70 34 -94 -4 -10 -32 -28 -62 -42 -51 -22 -57 -23 -73 -8 -14 13 -16
26 -12 72 3 35 12 62 21 70 19 14 66 16 92 2z m-9032 -46 c19 -3 32 -11 32
-19 0 -8 -5 -15 -11 -15 -5 0 -19 -21 -30 -46 -22 -48 -20 -72 8 -132 9 -18
12 -36 9 -40 -4 -4 -53 -10 -109 -14 -104 -7 -144 2 -93 21 58 23 55 129 -6
205 -23 28 -27 40 -18 46 12 8 154 4 218 -6z m2239 8 c8 -5 10 -30 6 -86 -5
-69 -10 -83 -36 -112 -34 -40 -39 -40 -103 -15 -27 11 -61 22 -76 25 -35 8
-35 19 2 66 16 20 39 58 49 84 l20 46 63 0 c35 0 68 -4 75 -8z m6511 -12 c32
-35 57 -99 46 -118 -22 -35 -64 -56 -111 -56 -57 -1 -61 8 -43 107 10 54 17
70 34 77 34 14 54 11 74 -10z m2170 0 c41 -11 86 -30 101 -41 28 -20 67 -77
59 -85 -3 -2 -29 0 -59 5 -87 16 -220 31 -266 31 -52 0 -54 11 -12 68 26 36
36 42 68 42 20 0 69 -9 109 -20z m-11218 -10 c0 -5 -9 -14 -20 -20 -55 -29
-80 -162 -40 -213 11 -14 20 -27 20 -30 0 -3 -28 -8 -62 -12 -35 -4 -132 -17
-216 -31 -84 -13 -182 -24 -217 -24 -63 0 -66 1 -111 45 l-46 45 27 46 c22 38
95 104 114 104 3 0 16 -18 29 -40 25 -44 85 -95 104 -87 7 2 21 27 31 55 26
75 87 133 162 154 66 18 225 24 225 8z m737 -15 c149 -20 225 -37 230 -52 2
-6 -15 -17 -38 -25 -33 -11 -45 -21 -52 -44 -6 -16 -19 -42 -31 -59 -40 -57
-23 -195 31 -249 52 -52 153 -24 194 54 42 78 9 182 -74 236 -52 34 -52 35 5
53 28 9 42 9 58 1 40 -22 260 -192 280 -217 25 -32 34 -81 22 -114 -10 -25
-15 -26 -104 -32 -52 -3 -152 -18 -224 -32 -71 -14 -139 -25 -151 -25 -12 0
-25 -5 -29 -11 -4 -7 10 -9 50 -4 61 8 61 8 46 -47 -14 -50 0 -101 45 -157 43
-54 44 -69 5 -83 -17 -5 -29 -15 -27 -22 3 -6 -2 -26 -9 -45 -29 -70 -11 -143
60 -248 20 -29 23 -40 14 -51 -7 -7 -62 -39 -122 -69 -61 -31 -134 -70 -162
-88 -28 -18 -92 -52 -142 -75 l-92 -43 -49 22 c-27 11 -63 21 -78 21 -40 0
-144 -38 -169 -61 -26 -25 -59 -24 -84 1 -26 26 -26 75 0 131 11 24 20 58 20
76 0 18 6 37 13 43 163 137 196 157 377 236 l95 41 3 69 c3 78 -22 142 -70
177 -53 39 -118 -5 -118 -80 0 -66 33 -116 105 -159 16 -9 8 -14 -51 -38 -70
-28 -137 -61 -276 -135 -65 -34 -86 -41 -135 -41 -111 0 -185 -18 -221 -53
l-33 -32 -30 33 -30 33 30 34 c32 37 47 89 37 129 -7 29 2 36 119 106 151 90
445 230 600 286 164 59 170 62 167 78 -1 9 4 29 13 45 30 60 9 180 -39 221
-28 22 -82 18 -111 -10 -58 -55 -53 -167 11 -237 19 -20 33 -42 31 -47 -4 -11
-55 -26 -97 -29 -21 -2 -26 4 -34 38 -23 103 -30 121 -61 152 -72 72 -165 23
-165 -87 0 -70 53 -140 106 -140 26 0 31 -12 12 -27 -7 -5 -70 -33 -140 -61
-131 -54 -353 -161 -399 -193 -22 -15 -140 -48 -241 -66 -42 -8 -36 18 18 78
53 60 66 89 64 144 -1 22 -1 45 -1 52 1 15 96 80 171 118 30 15 80 44 110 64
50 33 204 109 478 237 56 26 108 54 114 61 13 16 14 16 -46 -2 -64 -20 -77 -8
-41 39 38 50 45 117 16 156 -11 16 -21 32 -21 35 0 10 130 5 247 -10z m8046
-69 l31 -69 -20 -35 c-10 -20 -32 -43 -49 -51 -16 -7 -43 -20 -58 -27 -67 -32
-97 -4 -71 68 8 23 18 71 21 105 5 55 9 63 32 72 14 5 39 9 55 8 25 -2 32 -10
59 -71z m-5941 -26 c-4 -96 3 -129 34 -175 14 -21 24 -38 22 -39 -2 -1 -22
-10 -45 -20 -41 -18 -44 -18 -90 -1 -122 46 -184 93 -169 130 3 8 17 15 30 15
28 0 56 26 88 80 39 65 70 91 103 88 l30 -3 -3 -75z m7179 50 c17 -9 17 -14 6
-39 -13 -30 -134 -143 -178 -166 -31 -17 -179 -55 -211 -55 -12 0 -30 5 -38
10 -12 8 -11 12 7 32 12 13 27 44 33 70 11 42 10 52 -9 90 -11 23 -18 44 -16
47 16 16 378 26 406 11z m-4321 -45 c22 -33 25 -35 28 -16 2 11 6 21 10 21 11
0 102 -80 102 -90 0 -4 -14 -13 -30 -20 -69 -29 -103 -104 -102 -228 0 -194
147 -281 251 -148 28 36 31 45 31 115 0 42 -9 111 -19 154 -18 75 -12 116 9
61 6 -15 26 -52 45 -83 28 -45 37 -73 45 -139 6 -45 15 -94 21 -109 5 -14 7
-34 4 -44 -3 -10 3 -36 15 -58 31 -62 26 -111 -9 -78 -11 10 -12 6 -7 -23 16
-80 18 -110 8 -110 -6 0 -12 6 -15 13 -2 6 -7 9 -11 6 -4 -4 0 -26 8 -50 20
-56 20 -73 1 -89 -9 -7 -13 -21 -10 -31 6 -19 -11 -85 -27 -104 -4 -5 -8 -20
-8 -34 0 -13 -7 -32 -15 -41 -13 -14 -12 -30 12 -139 25 -114 26 -123 10 -132
-11 -6 -17 -22 -17 -43 0 -21 -6 -36 -15 -40 -12 -4 -15 -23 -15 -83 0 -52 -5
-85 -14 -99 -8 -12 -20 -43 -27 -70 -24 -98 -62 -143 -48 -56 11 66 11 134 0
128 -5 -4 -12 -24 -16 -47 -6 -32 -10 -39 -23 -34 -10 4 -23 -3 -34 -17 l-18
-23 0 23 c0 12 -4 22 -10 22 -5 0 -10 -13 -10 -28 0 -16 -6 -37 -14 -47 -13
-18 -15 -18 -51 14 -43 38 -69 37 -73 -2 -3 -24 -8 -27 -38 -27 -19 0 -34 5
-34 12 0 6 -6 19 -14 27 -13 14 -11 23 9 71 75 173 -41 318 -131 164 -35 -59
-43 -131 -19 -168 11 -16 14 -33 10 -43 -4 -10 -13 -45 -19 -78 -12 -67 -31
-76 -31 -15 -1 48 -15 66 -41 52 -16 -8 -22 -4 -35 22 -15 29 -15 37 2 101 21
80 22 85 11 85 -4 0 -16 -16 -27 -36 -27 -50 -63 -78 -82 -62 -11 9 -16 9 -24
-3 -7 -12 -9 -12 -10 1 -1 8 0 25 1 37 2 31 -18 63 -39 63 -11 0 -21 7 -25 15
-9 25 -34 185 -41 267 -6 59 -10 75 -21 71 -15 -6 -18 9 -14 70 1 21 -6 54
-17 75 -16 33 -18 64 -18 265 0 186 3 230 14 237 11 6 12 19 8 55 -6 42 -5 47
14 52 19 5 21 11 14 52 -13 89 -12 106 9 106 21 0 34 25 35 67 1 15 11 37 24
48 12 12 29 35 37 52 36 76 65 18 31 -62 -27 -62 -27 -122 0 -178 39 -79 120
-105 177 -57 53 44 65 92 69 265 3 113 8 165 20 192 17 41 28 41 45 0 11 -26
12 -26 15 -4 6 30 24 28 58 -8 32 -33 45 -31 45 9 0 29 18 53 35 48 5 -2 21
-21 35 -42z m2777 -45 c40 -81 51 -132 35 -156 -4 -6 -34 -25 -68 -42 l-61
-31 -37 38 c-32 33 -36 42 -27 59 6 11 14 53 17 94 9 99 25 130 67 126 29 -3
36 -10 74 -88z m2429 70 c130 -21 174 -34 174 -49 0 -6 -12 -27 -26 -48 -31
-46 -29 -90 9 -150 14 -23 23 -44 20 -47 -4 -3 -28 -6 -53 -6 -102 0 -140 21
-106 59 86 95 -30 303 -121 219 -49 -44 -83 -164 -53 -183 6 -3 10 -15 10 -25
0 -31 57 -87 118 -116 52 -24 55 -27 37 -40 -10 -8 -31 -14 -47 -14 -38 0 -56
-31 -64 -113 -4 -37 -10 -66 -14 -65 -33 13 -129 64 -129 70 -1 3 14 15 33 26
59 35 69 60 61 152 l-7 80 -65 37 -65 36 30 13 c31 13 62 58 62 91 0 10 -9 33
-20 51 -11 18 -20 35 -20 37 0 11 124 4 236 -15z m-750 1 c5 -5 48 -21 95 -35
47 -14 94 -33 105 -41 18 -14 18 -14 -9 -15 -41 0 -85 -26 -103 -62 -24 -47
-14 -108 31 -174 20 -31 34 -58 31 -61 -3 -3 -36 4 -73 15 -95 28 -229 60
-288 68 -50 7 -99 26 -110 43 -3 6 12 18 32 28 21 9 88 68 148 129 61 61 115
112 121 113 5 1 14 -3 20 -8z m439 -2 c4 -5 0 -18 -9 -28 -9 -10 -16 -33 -17
-52 -1 -69 -7 -72 -79 -29 -35 22 -88 49 -117 61 -51 20 -67 42 -40 52 25 11
256 7 262 -4z m-8907 -8 c11 -7 11 -17 -5 -60 l-18 -51 28 -50 28 -50 -28 -11
c-40 -16 -240 -5 -284 15 -52 24 -244 171 -244 187 0 9 16 16 45 20 71 9 464
10 478 0z m7705 -7 c4 -4 -2 -19 -13 -34 -24 -33 -26 -103 -5 -140 22 -39 19
-43 -40 -38 -37 3 -54 1 -52 -6 2 -6 18 -12 35 -14 37 -4 37 -7 17 -56 -10
-23 -13 -50 -9 -75 7 -44 5 -46 -86 -56 l-55 -7 3 77 c3 57 0 82 -12 100 -19
29 -9 38 39 33 19 -2 36 2 37 7 2 6 -54 18 -130 28 -234 32 -242 51 -37 93 43
8 93 23 110 32 38 20 155 61 176 61 9 1 19 -2 22 -5z m-6180 -13 c21 -5 41
-12 44 -15 3 -3 -2 -44 -12 -91 -21 -97 -12 -148 30 -191 37 -37 103 -34 150
7 42 38 76 94 100 167 l17 52 73 0 c47 0 77 -4 81 -12 4 -7 11 -59 15 -116 9
-121 36 -191 81 -206 57 -20 101 31 153 174 45 124 73 165 88 126 7 -18 78
-39 101 -30 23 9 26 -6 29 -146 2 -110 5 -131 27 -175 21 -42 30 -50 56 -53
27 -3 34 3 77 65 35 51 107 199 107 221 0 9 55 -2 105 -22 82 -33 95 -60 66
-130 -23 -56 -27 -128 -10 -172 14 -39 4 -71 -29 -88 -21 -10 -62 -13 -176
-10 l-149 4 -51 39 c-92 69 -159 79 -209 30 -29 -29 -34 -31 -83 -25 -73 8
-78 11 -101 60 -26 52 -86 86 -152 86 -35 0 -48 -6 -72 -31 l-29 -31 -82 18
c-86 20 -85 19 -118 94 -9 20 -95 61 -143 68 -29 4 -45 0 -69 -18 -29 -21 -31
-22 -74 -5 -40 15 -45 21 -55 61 -9 33 -19 49 -41 60 -30 15 -30 34 1 34 34 0
61 42 119 183 10 24 17 27 54 27 24 0 60 -4 81 -9z m-883 -87 c84 -22 100 -31
100 -54 0 -40 -11 -51 -44 -45 -17 4 -130 -1 -250 -10 -142 -10 -223 -12 -229
-6 -6 6 -1 21 17 41 28 34 28 56 -1 113 -8 15 -12 31 -9 36 5 8 306 -46 416
-75z m8906 66 c5 -5 43 -14 84 -21 41 -6 80 -15 87 -21 6 -5 13 -39 15 -76 3
-37 11 -82 19 -100 19 -46 4 -54 -106 -50 -112 5 -120 9 -95 51 11 18 20 47
20 65 0 43 -25 103 -52 123 -11 9 -18 21 -14 28 9 13 29 14 42 1z m-3163 -18
c10 -10 24 -39 33 -64 16 -49 77 -128 98 -128 20 0 59 -47 53 -64 -4 -9 -26
-26 -51 -38 l-45 -21 -40 36 c-27 24 -51 37 -69 37 -33 0 -67 -32 -77 -72 -11
-42 -29 -52 -78 -42 -23 4 -76 8 -118 8 -90 1 -109 -10 -135 -83 -23 -60 -32
-71 -60 -71 -17 0 -31 12 -48 39 -27 42 -60 56 -110 45 -70 -14 -110 -56 -118
-124 -2 -20 -13 -27 -58 -41 -59 -18 -80 -12 -80 23 0 31 -45 68 -82 68 -65 0
-118 -56 -118 -126 0 -30 -136 -33 -173 -4 -17 14 -40 20 -74 20 -47 0 -54 -3
-142 -62 -51 -35 -94 -21 -139 45 -35 50 -109 124 -142 140 -34 17 -27 28 30
48 l51 18 27 -45 c66 -111 87 -139 107 -139 28 0 32 66 10 171 -9 44 -15 91
-13 104 3 26 55 66 96 77 38 9 56 -9 73 -77 19 -72 47 -127 96 -187 80 -100
126 -30 157 239 8 64 17 122 21 127 3 6 16 11 28 11 13 0 46 6 74 13 32 9 58
10 67 5 9 -5 32 -35 52 -66 100 -158 226 -231 290 -167 23 24 25 31 21 93 -2
37 -10 93 -18 125 -15 66 -12 71 54 82 51 9 75 -8 125 -92 71 -119 147 -176
200 -151 45 22 65 77 65 185 l0 95 31 14 c46 20 110 18 129 -4z m3557 -96 c47
-14 78 -19 157 -25 7 -1 28 -15 48 -32 39 -34 47 -69 16 -69 -11 0 -41 -18
-66 -40 -25 -22 -47 -40 -49 -40 -2 0 -38 9 -81 20 -43 11 -95 20 -115 20 -45
0 -52 8 -80 82 -24 65 -21 78 18 78 15 0 36 7 46 15 11 8 27 13 35 11 9 -3 41
-12 71 -20z m-1083 -11 c15 -8 41 -17 56 -20 37 -7 34 -44 -6 -63 -49 -23 -69
-91 -52 -174 8 -44 4 -46 -56 -18 -24 11 -52 20 -62 20 -10 0 -34 7 -55 15
-29 13 -34 18 -22 25 8 5 31 10 51 10 64 0 81 24 90 126 4 49 8 90 8 92 2 6
22 1 48 -13z m-10139 -27 c-4 -15 -150 -89 -223 -114 -27 -9 -66 -27 -85 -39
-97 -61 -444 -236 -505 -255 -38 -13 -88 -32 -109 -44 -31 -16 -40 -18 -44 -8
-2 8 -30 48 -62 90 -85 115 -87 119 -54 145 27 21 54 49 91 96 14 17 41 28
104 42 207 45 327 61 637 84 242 17 254 17 250 3z m8525 -9 c67 -6 128 -12
135 -15 10 -3 5 -15 -18 -40 -36 -41 -50 -73 -50 -112 0 -35 26 -72 51 -72 44
0 13 -19 -63 -39 -46 -12 -103 -29 -127 -37 -85 -27 -84 -29 -76 96 6 93 5
113 -9 135 -21 32 -66 33 -126 3 -91 -46 -114 -136 -56 -212 14 -19 26 -39 26
-45 0 -12 -74 -34 -98 -29 -14 3 -17 16 -17 80 0 62 -4 82 -21 104 -26 36 -61
45 -110 28 -79 -27 -123 -109 -102 -192 13 -54 2 -68 -60 -78 l-43 -7 7 62 c6
56 4 65 -21 103 -26 39 -27 42 -9 55 10 7 28 13 40 13 12 0 62 18 110 41 94
43 211 79 256 79 14 0 41 12 58 27 31 26 131 61 178 62 13 1 79 -4 145 -10z
m-6593 -36 c0 -5 -16 -19 -35 -31 -46 -32 -59 -76 -51 -168 3 -40 2 -75 -3
-78 -10 -7 -197 21 -255 38 -50 14 -58 34 -17 42 43 9 56 27 45 67 -20 66
-129 102 -174 57 -29 -29 -25 -62 16 -115 19 -26 34 -49 32 -50 -4 -4 -314 29
-381 41 -80 13 -124 86 -77 129 26 24 248 44 577 53 138 4 255 10 259 15 4 4
20 7 36 7 15 0 28 -3 28 -7z m395 -31 c33 -15 94 -46 136 -69 42 -24 84 -43
93 -43 10 0 31 -7 47 -16 l30 -15 -41 -30 c-23 -17 -48 -45 -55 -64 -13 -29
-12 -39 1 -80 9 -25 14 -49 11 -52 -8 -7 -200 26 -211 37 -5 5 -1 20 10 35 58
81 69 142 35 205 -29 56 -76 83 -134 77 -41 -3 -56 -11 -90 -45 -35 -35 -41
-47 -45 -95 -3 -45 0 -63 19 -96 12 -22 19 -44 16 -48 -9 -8 -127 13 -139 25
-6 6 1 25 16 47 49 71 35 183 -29 233 -14 11 -25 22 -25 26 0 3 66 3 148 0
129 -6 154 -10 207 -32z m7035 9 c42 -11 36 -43 -15 -95 l-47 -46 -72 0 c-40
0 -94 -3 -120 -6 l-46 -7 0 64 c0 71 5 84 35 92 30 7 236 6 265 -2z m1360 -61
c348 -20 422 -29 471 -53 35 -17 51 -20 63 -12 33 21 53 -4 163 -200 16 -27 2
-78 -31 -120 l-23 -29 -54 16 c-30 9 -89 22 -131 27 -92 13 -173 44 -253 97
-32 22 -82 53 -111 69 -65 37 -199 120 -240 148 -18 12 -46 30 -64 39 -36 21
-31 43 9 34 14 -3 105 -10 201 -16z m-1067 -50 c100 -17 193 -35 207 -41 24
-11 24 -12 6 -23 -11 -6 -30 -22 -43 -35 -30 -31 -32 -112 -4 -155 33 -50 6
-60 -70 -27 -24 11 -106 29 -183 41 -76 11 -147 25 -157 31 -23 12 -69 99 -69
130 0 22 32 75 58 97 23 18 53 15 255 -18z m-8654 -61 c28 -35 26 -41 -45
-156 -30 -48 -53 -74 -67 -77 -12 -2 -57 -12 -100 -21 -43 -9 -81 -14 -84 -11
-3 3 -1 30 5 60 17 86 -9 150 -76 185 l-37 19 28 7 c32 9 201 22 292 23 55 1
62 -1 84 -29z m9658 -21 c21 -12 46 -29 57 -37 17 -15 17 -16 -14 -21 -44 -7
-72 -46 -78 -109 -2 -28 -8 -54 -13 -57 -9 -5 -84 30 -93 44 -3 5 9 19 25 31
41 30 61 80 53 131 -8 48 5 52 63 18z m-6274 -18 c15 -29 15 -29 -19 -36 -61
-11 -81 9 -44 46 28 28 46 25 63 -10z m4507 22 c0 -5 -14 -21 -31 -38 -45 -42
-62 -82 -63 -145 -1 -45 5 -64 27 -97 29 -44 34 -62 16 -62 -12 0 -117 69
-174 115 -52 42 -129 81 -123 63 7 -20 110 -100 180 -139 34 -19 64 -41 66
-50 3 -19 -102 -69 -195 -93 -63 -17 -397 -34 -427 -23 -16 6 -16 9 -2 29 35
49 14 164 -42 229 -20 23 -31 44 -26 49 5 5 77 18 159 28 l150 19 52 -26 c59
-28 78 -23 44 13 -22 24 -22 25 -3 35 10 5 89 26 175 45 86 19 164 39 174 45
22 13 43 14 43 3z m404 -13 c14 -11 26 -27 26 -35 0 -7 12 -38 27 -68 15 -31
24 -58 21 -62 -4 -3 -70 -24 -148 -45 -77 -21 -154 -45 -170 -54 -54 -28 -79
-15 -39 21 52 46 67 168 28 219 -31 39 -15 45 117 45 98 0 115 -3 138 -21z
m786 -6 c47 -21 189 -73 199 -73 9 0 56 -24 208 -107 29 -15 53 -30 53 -33 0
-3 -14 -11 -30 -17 -22 -8 -37 -26 -55 -65 -30 -65 -31 -78 -4 -112 52 -67
139 6 139 118 0 25 5 46 10 46 6 0 48 -24 93 -52 46 -29 127 -73 179 -98 l96
-45 -5 -57 c-5 -52 -3 -61 26 -104 43 -65 30 -76 -52 -45 -34 13 -96 30 -137
38 -58 11 -116 34 -257 106 -100 51 -193 100 -205 110 l-23 17 29 22 c35 26
56 74 56 126 0 62 -17 76 -88 74 -59 -2 -61 -1 -82 33 -41 66 -97 78 -147 32
-39 -35 -47 -78 -27 -141 10 -31 15 -59 11 -62 -3 -3 -21 3 -39 14 -18 11 -50
25 -70 32 -45 14 -48 25 -10 44 51 27 75 61 79 118 5 70 12 100 21 96 4 -2 18
-9 32 -15z m-8903 -14 c39 -15 44 -26 37 -94 -5 -44 -2 -71 10 -99 9 -21 16
-43 16 -48 0 -21 -184 24 -237 58 -20 12 -21 17 -11 46 14 41 50 98 74 119 35
30 67 35 111 18z m6403 2 c0 -5 -14 -20 -31 -32 -44 -31 -50 -55 -28 -113 10
-28 16 -52 13 -55 -3 -3 -40 -11 -82 -18 -42 -6 -104 -16 -137 -22 -136 -24
-730 -31 -675 -8 39 16 136 28 179 22 37 -5 50 -3 61 10 25 30 90 56 153 62
l63 6 45 -48 45 -47 35 15 c43 18 89 70 89 102 0 31 10 37 140 89 126 49 130
50 130 37z m-6000 -41 c69 -12 165 -25 213 -29 48 -5 90 -11 94 -14 11 -12
-18 -35 -53 -42 -20 -3 -50 -12 -68 -20 -17 -7 -58 -21 -91 -30 -33 -10 -97
-30 -143 -46 -46 -16 -87 -29 -90 -29 -4 0 -7 33 -7 73 0 49 -6 82 -18 105
-32 59 -21 62 163 32z m1386 -33 c110 -35 106 -30 83 -119 -7 -27 -10 -51 -6
-54 19 -19 194 -44 372 -54 110 -5 217 -12 238 -15 20 -3 37 -1 37 4 0 10 -69
17 -291 31 -85 5 -164 12 -173 16 -15 6 -17 15 -13 51 8 70 12 71 142 39 100
-24 118 -32 136 -57 24 -34 72 -40 88 -12 8 16 18 16 120 5 61 -7 117 -15 125
-18 22 -8 32 -72 15 -90 -16 -15 -133 -31 -295 -41 -92 -5 -106 -3 -147 17
l-45 23 -55 -32 c-94 -54 -197 -52 -197 4 0 39 -17 63 -59 85 -25 12 -43 30
-49 49 -11 31 -19 34 -152 46 -96 9 -100 13 -68 77 15 29 29 61 33 71 6 22 18
20 161 -26z m1542 25 c19 -13 5 -41 -55 -104 -30 -32 -64 -82 -78 -115 -17
-39 -36 -65 -56 -77 -16 -9 -29 -24 -29 -32 0 -8 -10 -14 -24 -14 -20 0 -23 4
-18 28 3 15 13 33 23 39 22 17 15 48 -23 92 -31 36 -26 50 17 51 27 1 149 56
153 70 2 6 -4 20 -13 30 -14 16 -15 20 -4 24 47 16 89 19 107 8z m6323 -34
c27 -17 49 -33 49 -35 0 -2 -16 -11 -35 -19 -83 -34 -85 -161 -2 -140 36 9 62
51 61 98 -1 40 14 50 36 24 6 -8 33 -22 60 -31 52 -17 80 -49 80 -90 0 -38 26
-92 66 -142 60 -72 26 -83 -93 -28 -66 30 -174 88 -321 171 -46 25 -50 46 -19
84 14 16 28 49 32 72 7 39 20 68 32 68 3 0 27 -14 54 -32z m-8741 -46 c0 -4
-18 -29 -40 -56 -38 -46 -40 -51 -40 -117 l0 -69 -40 0 c-51 0 -75 24 -84 82
-4 25 -18 60 -31 79 -41 55 -41 55 85 78 60 11 150 13 150 3z m3871 -52 c24
-19 24 -19 2 -20 -31 0 -53 10 -53 26 0 20 24 17 51 -6z m3657 7 c8 -9 3 -24
-19 -56 -32 -48 -49 -99 -49 -148 0 -17 -4 -34 -9 -38 -15 -8 -91 25 -91 41 0
7 12 35 26 61 21 39 25 58 21 101 l-4 52 57 0 c35 0 62 -5 68 -13z m-1818 -16
c0 -5 -17 -20 -37 -32 -59 -36 -83 -68 -83 -106 0 -19 10 -52 23 -74 19 -34
20 -41 7 -49 -46 -30 -120 21 -120 81 0 25 -10 43 -41 75 -45 46 -44 64 4 65
18 0 66 11 107 24 79 24 140 31 140 16z m-6076 -36 c-7 -19 -14 -48 -14 -64 0
-36 -12 -41 -101 -41 -75 0 -143 21 -137 42 9 26 184 95 245 97 21 1 21 0 7
-34z m1051 9 c66 -3 126 -11 133 -16 26 -21 13 -46 -30 -60 l-43 -13 -3 -63
-3 -64 -124 4 c-68 2 -126 6 -130 10 -4 4 -1 29 6 57 12 48 9 76 -17 138 -6
14 22 22 61 18 17 -2 84 -7 150 -11z m7082 -5 c31 -11 29 -32 -7 -85 -37 -53
-60 -115 -60 -160 0 -18 -3 -35 -8 -37 -6 -4 -119 38 -131 49 -2 1 12 22 32
46 50 63 57 80 57 148 l0 62 47 -7 c25 -4 57 -11 70 -16z m-507 -69 c0 -77 -5
-91 -26 -70 -13 13 -171 59 -204 60 -56 1 -65 32 -13 44 16 3 60 15 98 25 39
11 87 20 108 20 l37 1 0 -80z m-8450 63 c0 -3 -7 -14 -16 -24 -26 -29 -10
-102 32 -148 19 -21 34 -43 34 -49 0 -5 -17 -20 -37 -32 -36 -21 -36 -22 -14
-33 13 -7 32 -36 46 -70 31 -77 66 -129 110 -162 19 -15 35 -33 35 -41 0 -17
-86 -68 -104 -61 -7 3 -16 22 -19 42 -7 42 -71 133 -129 183 -46 40 -48 57 -8
77 17 9 30 20 30 25 0 6 -18 1 -40 -10 -21 -11 -42 -20 -45 -20 -3 0 -5 28 -5
63 0 90 -16 136 -62 180 -24 23 -37 42 -32 47 23 23 224 53 224 33z m236 -44
c38 -12 77 -28 87 -37 16 -14 16 -16 -5 -28 -13 -8 -40 -21 -61 -31 -44 -19
-44 -28 -3 -118 25 -55 120 -165 142 -165 25 0 15 -29 -17 -45 -17 -9 -29 -19
-26 -21 7 -7 55 16 112 52 55 35 287 172 376 222 60 34 131 43 171 21 21 -11
21 -12 3 -25 -10 -8 -38 -14 -61 -14 -53 0 -90 -27 -80 -58 4 -12 32 -43 62
-69 30 -26 71 -71 91 -101 21 -30 45 -58 55 -63 28 -15 11 -37 -64 -85 -81
-52 -105 -55 -113 -16 -16 73 -92 282 -110 301 -11 12 -20 10 -58 -12 -80 -47
-82 -61 -28 -202 40 -103 65 -143 97 -155 32 -13 25 -24 -36 -55 -68 -34 -90
-33 -90 5 0 16 -8 51 -19 77 -10 26 -24 71 -30 99 -18 76 -43 110 -85 118 -21
4 -45 2 -57 -5 -19 -10 -21 -17 -16 -58 12 -89 56 -210 93 -250 19 -21 34 -43
34 -50 0 -13 -74 -61 -95 -61 -18 0 -18 2 -4 34 10 21 6 37 -24 108 -19 46
-42 109 -51 141 -19 67 -40 74 -80 26 -56 -67 -26 -212 60 -288 24 -21 44 -42
43 -47 0 -5 -44 -30 -97 -56 -187 -90 -255 -116 -322 -123 -90 -9 -168 -39
-210 -80 -34 -33 -70 -46 -70 -25 0 5 -16 13 -35 19 -19 5 -48 19 -65 31 -30
21 -30 23 -24 85 6 54 4 68 -15 98 -11 19 -21 39 -21 45 0 6 26 20 58 32 31
12 85 37 120 56 34 19 68 34 75 34 18 0 117 69 117 81 0 5 -8 9 -17 7 -12 -2
-21 7 -28 27 -14 43 -121 174 -161 197 -43 25 -43 40 1 61 50 24 59 22 78 -21
19 -43 128 -177 157 -192 22 -12 26 -40 8 -58 -9 -9 -9 -12 1 -12 15 0 279
145 298 163 10 10 10 20 1 47 -15 42 -87 159 -135 218 l-35 42 21 18 21 17
-25 80 c-13 44 -25 81 -25 83 0 8 58 -1 116 -19z m9072 9 c5 -7 12 -24 14 -38
4 -33 -26 -37 -70 -10 -35 21 -34 36 2 50 30 12 42 12 54 -2z m-2874 -25 c-4
-10 -12 -46 -18 -80 l-10 -63 -46 1 c-25 0 -75 3 -111 7 -58 7 -73 13 -108 45
-24 21 -51 37 -65 37 -27 0 -56 -24 -56 -46 0 -18 -13 -18 -262 -2 -179 11
-197 14 -202 31 -6 25 2 44 22 52 9 4 143 11 297 16 154 5 309 10 345 12 193
9 223 8 214 -10z m2841 -52 c39 -11 87 -32 108 -47 36 -24 38 -27 22 -44 -18
-20 -55 -33 -55 -19 0 20 -42 49 -69 49 -61 0 -130 -92 -131 -173 0 -21 -6
-40 -13 -43 -10 -4 -139 55 -155 71 -2 2 15 13 38 25 61 31 100 98 100 170 0
31 3 59 6 63 4 3 23 -2 43 -12 20 -10 68 -28 106 -40z m-4050 29 c4 -6 -5 -10
-19 -10 -14 0 -26 5 -26 10 0 6 9 10 19 10 11 0 23 -4 26 -10z m-4747 -26 c18
-12 22 -25 22 -67 0 -54 26 -112 55 -123 20 -8 19 -33 -2 -56 -28 -31 -50 -22
-77 32 -34 67 -100 154 -131 170 -32 17 -32 26 3 44 36 20 102 20 130 0z
m7751 -9 c30 -6 56 -16 58 -22 2 -6 -7 -44 -21 -84 -13 -41 -27 -104 -31 -140
-10 -91 -15 -98 -61 -76 -20 10 -38 16 -41 14 -6 -6 48 -36 167 -91 58 -27
141 -66 185 -87 44 -21 105 -47 135 -58 30 -10 110 -44 177 -75 68 -31 149
-65 180 -77 119 -42 110 -35 122 -100 5 -32 22 -79 36 -104 15 -24 24 -48 22
-53 -3 -4 -31 -25 -62 -47 -56 -38 -57 -38 -83 -21 -74 48 -116 60 -202 60
-56 0 -103 -6 -139 -18 -30 -11 -67 -16 -85 -13 -28 4 -258 103 -391 167 -22
11 -85 37 -140 59 -55 21 -145 61 -200 89 -224 110 -399 202 -412 215 -11 11
-8 25 21 88 19 41 44 107 56 147 26 84 44 89 48 13 2 -39 -3 -66 -22 -108 -30
-65 -34 -137 -9 -165 27 -30 86 -24 116 12 39 46 87 135 113 209 28 80 27 80
161 30 30 -11 21 -32 -23 -58 -19 -12 -43 -35 -52 -52 -9 -18 -32 -55 -51 -83
-52 -80 -55 -156 -6 -178 34 -16 69 4 108 62 17 25 57 73 89 107 50 54 58 68
58 102 0 30 4 40 18 43 26 6 -32 39 -186 104 -151 64 -157 73 -75 117 l51 27
31 -56 c37 -64 87 -93 162 -94 84 0 118 73 76 163 -22 45 -15 61 22 51 14 -4
50 -12 80 -19z m-2976 -27 c25 -13 21 -32 -5 -24 -13 4 -36 9 -53 12 -48 9
-57 13 -50 25 8 11 77 3 108 -13z m-4453 -28 c0 -11 -68 -70 -80 -70 -13 0
-13 26 1 51 16 31 79 46 79 19z m7664 11 c3 -4 33 -16 66 -25 139 -39 502
-185 567 -228 21 -14 100 -58 174 -98 74 -40 142 -79 152 -88 9 -8 17 -29 17
-46 0 -25 13 -43 70 -97 39 -36 70 -70 70 -77 0 -12 -79 -62 -100 -62 -7 0
-47 15 -89 34 -103 47 -137 52 -205 30 -49 -15 -62 -16 -89 -5 -18 7 -85 33
-150 57 -179 67 -201 82 -163 113 42 35 80 212 62 285 -12 47 -74 54 -102 11
-17 -26 -44 -178 -44 -252 0 -33 -4 -53 -11 -53 -13 0 -119 59 -119 66 0 2 11
25 24 51 64 125 79 199 51 253 -49 96 -158 -18 -172 -179 -3 -38 -9 -75 -13
-81 -11 -18 -57 -4 -87 26 l-25 25 20 22 c29 32 62 149 69 245 5 75 13 96 27
73z m-3300 -7 c20 -8 21 -33 1 -40 -23 -9 -48 15 -34 32 13 16 12 16 33 8z
m-2179 -34 c17 -11 56 -26 86 -33 33 -9 54 -20 54 -28 0 -16 -345 -149 -387
-149 -32 0 -33 5 -14 52 13 30 13 42 1 89 -8 29 -12 56 -9 59 8 8 133 27 188
29 33 1 59 -5 81 -19z m537 11 c13 -5 35 -21 51 -36 49 -50 27 -115 -24 -69
-16 14 -21 14 -58 -5 -46 -24 -71 -27 -71 -8 0 7 -9 18 -20 25 -30 19 -26 60
8 73 15 6 34 15 42 19 20 12 44 12 72 1z m2246 -16 c74 -3 147 -8 163 -12 l29
-6 -19 -31 c-17 -27 -18 -38 -10 -85 6 -29 8 -55 5 -58 -2 -3 -29 4 -58 15
-55 20 -224 61 -338 82 -90 16 -100 23 -64 46 16 10 38 25 49 35 23 20 50 27
85 23 14 -2 85 -6 158 -9z m3847 -69 c190 -94 199 -100 192 -143 -7 -42 8 -88
45 -135 33 -42 31 -53 -24 -106 l-34 -32 -46 44 c-56 53 -119 76 -211 76 -59
0 -77 4 -116 28 -25 16 -85 48 -133 71 -48 23 -90 46 -93 52 -4 5 9 9 27 9 45
0 54 8 78 63 l21 48 21 -26 c42 -53 105 -10 115 79 3 26 8 45 12 44 3 -2 69
-34 146 -72z m-8297 58 c19 -5 22 -13 22 -51 0 -35 7 -54 30 -83 17 -21 30
-43 30 -49 0 -13 -108 -63 -120 -56 -4 3 -13 35 -20 71 -6 37 -20 85 -31 106
-11 22 -18 46 -15 54 6 15 62 19 104 8z m1245 -61 c-4 -58 -2 -65 49 -135 10
-13 10 -20 1 -29 -15 -15 -154 -42 -164 -32 -5 5 1 28 11 52 26 56 25 59 -10
127 -36 68 -32 74 56 74 l60 0 -3 -57z m2525 32 c-4 -24 -36 -31 -62 -12 -26
19 -14 34 29 33 30 -1 35 -4 33 -21z m-3408 5 c12 -7 12 -13 4 -27 -18 -29
-217 -123 -231 -110 -3 4 15 26 40 50 27 25 47 52 47 64 0 12 8 24 18 26 32 9
107 7 122 -3z m638 -11 c-47 -35 -34 -107 36 -211 18 -27 18 -28 -5 -37 -13
-4 -55 -12 -93 -16 l-69 -7 7 24 c19 65 18 133 -3 187 -12 30 -18 58 -14 62
10 9 53 16 118 17 l50 1 -27 -20z m2683 -16 c50 -48 96 -133 77 -144 -18 -12
-46 -11 -53 1 -3 6 1 10 9 10 26 0 19 11 -50 81 -62 63 -73 89 -38 89 8 0 32
-17 55 -37z m1342 28 c54 -5 101 -12 104 -14 2 -3 -5 -19 -17 -36 -27 -35 -31
-111 -11 -184 8 -26 11 -50 7 -54 -3 -3 -48 8 -98 26 -51 17 -124 37 -162 44
-38 7 -71 18 -73 24 -3 7 15 32 38 57 40 44 41 48 37 96 l-5 50 41 0 c23 -1
85 -5 139 -9z m1020 -46 c-2 -54 -16 -120 -28 -140 -7 -11 -15 -32 -19 -47 -8
-35 -41 -37 -80 -7 -30 24 -32 36 -9 61 9 10 19 44 22 80 6 61 7 63 41 75 55
19 75 13 73 -22z m-5413 13 c0 -6 -11 -26 -25 -44 -14 -18 -25 -40 -25 -49 0
-25 100 -125 152 -151 27 -14 48 -26 48 -28 0 -2 -42 -14 -92 -25 -51 -12
-111 -28 -133 -37 l-40 -15 5 -92 c4 -67 10 -101 23 -121 13 -19 16 -31 9 -38
-12 -12 -196 -68 -221 -68 -15 0 -17 9 -13 60 4 55 2 61 -24 87 -16 16 -40 35
-53 44 -14 8 -21 20 -18 26 4 6 44 20 89 32 153 40 162 45 176 96 20 76 15
126 -17 176 -31 50 -71 72 -122 67 -102 -10 -105 -221 -4 -264 19 -8 35 -16
35 -19 0 -14 -185 -69 -201 -59 -4 2 -10 25 -14 51 -12 79 -46 127 -101 142
-15 4 -30 13 -32 19 -4 14 165 98 318 157 140 55 280 81 280 53z m4798 -14
c42 -14 88 -33 101 -43 l25 -19 -51 -49 c-27 -27 -52 -60 -56 -73 -3 -14 -11
-51 -17 -83 -7 -33 -18 -61 -26 -64 -21 -8 -105 17 -111 33 -3 7 11 39 30 71
19 32 41 77 48 100 11 39 10 46 -14 92 -22 43 -25 61 -10 61 2 0 38 -11 81
-26z m351 7 c29 -16 51 -63 51 -111 0 -22 -2 -40 -5 -40 -14 0 -290 141 -288
147 4 17 45 23 130 19 50 -2 100 -9 112 -15z m-1611 -45 c11 -11 10 -19 -5
-49 -22 -44 -38 -46 -57 -9 -8 16 -22 34 -30 41 -9 8 -16 20 -16 29 0 12 9 14
47 8 26 -3 54 -12 61 -20z m-2373 -8 c-4 -13 -7 -44 -6 -71 1 -41 -1 -49 -23
-59 -29 -13 -56 2 -56 32 0 10 -7 23 -15 30 -26 21 -17 39 33 64 61 32 77 33
67 4z m2082 -131 c19 -32 32 -61 29 -64 -15 -16 -106 104 -106 140 0 20 0 20
20 2 12 -11 37 -45 57 -78z m43 31 c52 -65 94 -137 86 -145 -9 -10 -35 17 -63
66 -15 25 -39 61 -55 79 -15 18 -28 37 -28 42 0 22 20 7 60 -42z m584 32 c38
-11 74 -24 79 -29 5 -5 -1 -26 -14 -52 -16 -31 -22 -60 -22 -96 1 -44 -2 -53
-15 -53 -22 0 -172 87 -178 104 -5 12 19 117 31 136 9 15 42 12 119 -10z
m1225 -16 c28 -14 51 -29 51 -33 0 -4 -9 -16 -21 -27 -33 -29 -69 -109 -85
-188 -9 -39 -17 -72 -19 -74 -4 -4 -125 57 -125 63 0 3 25 35 56 71 64 76 74
98 74 165 0 27 4 49 9 49 5 0 32 -11 60 -26z m-4169 12 c0 -3 -14 -18 -32 -35
l-31 -29 21 -52 21 -51 -42 -19 c-59 -27 -77 -26 -77 6 0 30 -14 60 -43 92
-19 20 -19 24 -6 37 24 24 189 68 189 51z m495 -36 c6 -9 -76 -82 -83 -75 -3
3 2 13 11 23 10 10 17 28 17 39 0 11 3 22 6 25 7 7 43 -2 49 -12z m1534 -26
c17 -19 41 -55 52 -80 25 -52 32 -55 27 -12 -5 49 25 49 55 1 14 -21 65 -71
115 -111 88 -70 142 -124 142 -143 0 -17 -13 -9 -65 40 -28 27 -67 56 -86 66
l-34 18 24 -27 c33 -36 16 -33 -49 9 -30 19 -60 35 -66 35 -19 0 -98 91 -132
151 -50 88 -40 119 17 53z m471 -98 c16 -33 28 -61 26 -63 -6 -6 -56 66 -71
101 -8 19 -19 37 -25 41 -5 3 -10 14 -10 23 1 25 43 -30 80 -102z m-5691 62
c22 -50 93 -149 141 -196 38 -36 35 -43 -25 -65 -22 -8 -87 -34 -145 -57 -78
-31 -127 -44 -190 -50 -95 -9 -135 -22 -167 -52 -27 -25 -52 -18 -92 28 -33
37 -39 62 -19 82 6 6 18 32 27 58 15 44 23 52 111 106 52 32 114 74 138 94 28
23 43 31 46 22 2 -7 9 -32 15 -54 13 -48 132 -184 160 -184 10 0 26 9 36 20
15 17 16 24 7 45 -17 38 -101 124 -150 156 l-44 28 29 17 c15 9 37 23 48 30
36 24 55 16 74 -28z m3471 17 c0 -14 3 -13 25 1 22 14 25 14 25 1 0 -17 -57
-70 -100 -92 -65 -34 -98 -62 -90 -76 5 -8 4 -19 -2 -26 -12 -15 -48 -18 -48
-4 0 5 -22 11 -50 15 -27 4 -50 9 -50 12 0 20 36 54 57 54 19 0 24 4 19 16 -5
13 0 15 26 12 18 -3 41 -8 51 -13 13 -5 17 -2 17 13 0 22 82 102 105 102 8 0
15 -7 15 -15z m2985 1 c40 -17 43 -29 15 -71 -17 -25 -20 -43 -18 -109 2 -55
-1 -81 -9 -83 -16 -6 -133 47 -133 59 0 6 11 19 25 29 30 25 40 75 28 140
l-10 49 34 0 c18 0 49 -7 68 -14z m-1285 -28 c23 -37 28 -112 8 -106 -17 6
-35 44 -43 96 -8 52 7 56 35 10z m-2300 -33 c0 -31 7 -69 15 -84 13 -26 13
-30 -3 -44 -23 -20 -92 -41 -102 -31 -4 5 -13 31 -19 58 -7 27 -21 62 -32 78
-11 16 -19 34 -17 40 5 13 83 35 131 37 26 1 27 0 27 -54z m-1264 -13 c-1 -52
4 -65 37 -113 20 -30 37 -60 37 -67 0 -13 -107 -65 -120 -57 -4 3 -13 26 -19
51 -14 54 -59 104 -94 104 -45 0 -51 -68 -10 -137 18 -31 23 -50 17 -60 -12
-19 -122 -65 -159 -67 -28 -1 -30 2 -45 59 -18 68 -36 105 -50 105 -31 0 0 32
69 73 57 34 323 165 337 167 0 0 0 -26 0 -58z m2254 9 c-7 -17 -19 -36 -27
-43 -14 -11 -15 -8 -8 22 11 52 25 74 37 62 8 -8 7 -20 -2 -41z m3778 -13
c224 -117 280 -145 348 -172 38 -16 76 -32 84 -37 91 -52 603 -291 739 -344
40 -16 79 -38 86 -50 20 -31 29 -146 13 -156 -34 -22 -106 -9 -186 33 -70 36
-91 42 -160 46 -46 2 -102 -1 -131 -8 -47 -11 -54 -10 -88 10 -21 12 -59 30
-84 40 -56 22 -293 136 -484 232 -81 41 -149 69 -160 66 -14 -3 6 -18 72 -51
50 -25 94 -51 98 -56 3 -6 45 -29 93 -52 78 -36 85 -42 67 -52 -36 -22 -72
-66 -78 -96 -10 -49 -38 -48 -128 5 -44 25 -114 61 -156 79 -82 36 -107 54
-85 62 7 3 25 15 40 28 26 23 26 23 14 83 -14 66 -3 112 27 112 49 0 121 79
121 133 0 107 -109 129 -165 32 -14 -23 -25 -53 -25 -67 0 -48 -12 -88 -27
-88 -16 0 -113 52 -113 60 0 3 20 28 44 55 59 68 76 105 76 165 0 38 4 50 15
50 8 0 68 -28 133 -62z m-960 23 c9 -5 25 -12 35 -15 24 -7 21 -34 -8 -98 -27
-58 -31 -94 -13 -133 6 -14 8 -28 5 -32 -7 -6 -105 23 -129 39 -8 4 1 20 25
47 42 46 55 99 38 148 -18 48 2 67 47 44z m-4088 -65 c0 -26 9 -61 24 -89 29
-54 22 -65 -44 -74 -39 -5 -40 -5 -40 23 0 16 -12 56 -25 89 -34 81 -32 91 13
102 54 14 72 1 72 -51z m940 37 c0 -23 -29 -53 -53 -53 -16 0 -17 3 -8 14 10
12 8 15 -11 18 -22 3 -22 4 7 20 39 22 65 22 65 1z m-1110 -22 c0 -5 -7 -14
-15 -21 -25 -20 -19 -96 11 -147 14 -25 23 -51 20 -60 -6 -13 1 -15 45 -9 l52
7 -21 -36 c-24 -40 -24 -116 0 -155 11 -18 10 -23 -7 -36 -34 -25 -64 -28 -85
-9 -26 23 -25 27 8 48 27 18 27 18 2 13 -14 -4 -36 -9 -50 -12 l-25 -6 25 20
24 20 -34 4 c-34 3 -34 4 28 27 34 13 65 28 69 34 8 13 -50 -1 -106 -25 -24
-10 -46 -16 -49 -13 -9 9 18 33 45 40 54 13 94 35 88 46 -5 8 -10 8 -18 0 -16
-16 -28 -13 -25 7 2 9 -1 16 -7 16 -5 -1 -32 -5 -58 -8 l-48 -7 3 68 c2 63 0
71 -30 112 -21 29 -29 48 -23 54 24 24 181 49 181 28z m4526 -40 c23 -10 45
-24 48 -30 4 -6 0 -32 -9 -58 -10 -29 -15 -74 -14 -115 1 -38 0 -70 -3 -73 -8
-9 -168 46 -168 57 0 6 11 19 24 29 35 27 59 107 51 164 -6 40 -5 45 11 45 11
0 38 -9 60 -19z m-3250 -49 c-16 -30 -65 -76 -73 -68 -6 6 14 44 44 84 31 42
53 30 29 -16z m2542 -24 c7 -7 12 -22 12 -35 0 -23 23 -32 35 -13 7 12 25 4
25 -11 0 -5 -18 -9 -40 -9 -27 0 -40 4 -40 14 0 7 -7 19 -15 26 -8 7 -15 19
-15 26 0 17 22 18 38 2z m918 -9 c76 -32 80 -38 44 -70 -28 -26 -30 -32 -30
-103 0 -41 -5 -78 -10 -81 -12 -8 -120 42 -120 55 0 5 10 28 21 50 18 34 21
53 16 106 -6 75 0 78 79 43z m-4211 -10 c-8 -12 -35 -12 -35 0 0 11 22 20 33
14 4 -2 5 -9 2 -14z m2723 -11 c31 -18 118 -68 193 -112 118 -71 231 -130 449
-237 67 -33 300 -104 390 -119 36 -6 152 -30 259 -53 213 -47 229 -55 201
-105 -28 -50 -59 -43 -330 68 -25 10 -64 23 -88 30 -24 6 -51 14 -60 17 -15 6
-15 4 -4 -9 7 -9 28 -20 45 -23 46 -10 400 -163 409 -178 13 -18 1 -77 -18
-98 -25 -27 -67 -23 -169 17 -49 19 -151 57 -225 84 -74 26 -189 73 -255 104
-66 31 -127 56 -136 56 -9 0 -22 6 -28 14 -13 15 -10 17 50 30 81 18 -3 126
-97 126 -38 0 -47 -16 -33 -62 5 -18 9 -36 9 -40 0 -21 -41 0 -167 84 -137 92
-282 220 -353 312 -19 25 -39 45 -44 46 -4 0 3 -15 16 -32 38 -51 41 -58 24
-58 -14 0 -102 103 -125 148 -10 19 -9 22 9 22 11 0 46 -14 78 -32z m-409 -22
c25 -40 30 -79 6 -56 -19 20 -48 90 -36 90 5 0 19 -15 30 -34z m-2367 12 c-7
-7 -12 -20 -12 -29 0 -10 -13 -27 -30 -39 -16 -12 -30 -30 -30 -41 0 -20 -24
-26 -35 -9 -3 6 -14 10 -23 10 -9 1 -30 11 -46 25 -25 20 -28 26 -17 39 8 9
25 16 40 17 14 0 49 9 76 19 60 22 95 26 77 8z m-1746 -53 c-5 -44 -2 -63 15
-99 26 -51 21 -69 -23 -96 -49 -30 -61 -23 -75 43 -17 73 -38 107 -69 107 -52
0 -59 -103 -10 -160 14 -17 26 -36 26 -40 0 -5 -19 -15 -42 -22 -31 -9 -69
-37 -138 -104 -53 -50 -104 -96 -115 -101 -11 -6 -49 -14 -85 -17 -89 -9 -114
4 -118 64 -2 34 -11 53 -34 77 -35 36 -32 63 6 63 13 0 62 23 108 52 84 52
535 287 552 288 5 0 6 -25 2 -55z m672 -126 c19 -17 44 -29 59 -29 46 0 13
-18 -71 -40 -123 -31 -126 -30 -126 33 0 60 -16 89 -59 106 -54 23 -89 -16
-77 -84 6 -32 25 -53 72 -81 17 -10 17 -12 -4 -23 -13 -7 -66 -17 -119 -22
-102 -11 -146 -27 -164 -60 -13 -25 -67 -49 -111 -49 -18 0 -48 -11 -70 -26
-34 -24 -40 -25 -69 -14 -31 13 -89 82 -89 105 0 12 173 106 220 120 25 7 42
15 210 94 83 39 225 91 248 91 6 0 33 14 59 30 l48 31 6 -77 c5 -70 8 -79 37
-105z m1992 166 c0 -16 -47 -161 -60 -185 -5 -8 -16 -15 -25 -15 -12 0 -24
-24 -45 -88 -15 -48 -34 -95 -41 -103 -11 -14 -13 -14 -22 1 -5 9 -6 27 -3 41
9 33 2 30 -23 -11 -13 -23 -28 -35 -42 -35 -19 0 -21 4 -15 39 3 22 9 48 12
58 5 13 4 15 -4 8 -16 -15 -82 -176 -82 -200 0 -25 18 -45 41 -45 9 0 22 -6
28 -14 15 -18 -99 -233 -252 -476 -60 -96 -132 -212 -159 -257 -52 -88 -75
-106 -64 -50 4 17 14 77 23 132 8 55 20 108 25 118 9 17 11 18 28 2 10 -9 26
-15 36 -13 38 7 41 118 4 118 -46 0 -78 -68 -126 -268 -34 -141 -71 -243 -93
-256 -15 -10 -14 26 4 121 18 91 18 96 6 89 -5 -4 -26 -59 -46 -124 -20 -64
-57 -161 -82 -214 -43 -93 -47 -97 -94 -117 -90 -39 -101 -38 -128 12 l-24 44
33 48 c58 84 219 359 213 365 -9 9 -68 -66 -122 -154 -28 -45 -63 -99 -78
-119 -15 -20 -40 -56 -55 -79 -15 -24 -57 -76 -93 -115 l-67 -73 -63 0 -63 0
-16 40 c-9 22 -16 45 -16 50 0 8 166 262 322 492 40 60 91 138 113 174 22 37
62 101 89 143 105 163 275 453 252 432 -27 -26 -92 -126 -297 -461 -83 -135
-190 -297 -238 -360 -48 -63 -105 -142 -126 -175 -56 -89 -163 -213 -199 -232
-52 -27 -87 -56 -102 -85 l-15 -28 -129 0 c-117 0 -132 2 -150 20 -27 27 -26
79 2 116 12 16 42 52 68 79 59 62 121 147 289 395 220 326 248 365 261 365 7
0 20 -19 27 -42 21 -62 63 -103 105 -103 21 0 42 7 51 18 25 27 31 92 13 135
-17 42 -46 57 -107 57 -25 0 -39 5 -39 13 0 7 23 43 50 81 28 38 50 74 50 80
-1 6 -9 0 -18 -13 -9 -13 -35 -44 -58 -70 -23 -25 -47 -57 -54 -70 -7 -13 -45
-67 -84 -121 -40 -53 -97 -136 -127 -184 -85 -138 -205 -304 -284 -391 -39
-44 -97 -113 -129 -152 -62 -79 -97 -104 -137 -96 -21 4 -37 -5 -78 -41 -28
-25 -59 -46 -69 -46 -9 0 -64 19 -122 41 -58 23 -114 45 -126 49 -19 8 -20 13
-13 67 7 56 10 60 85 130 43 40 75 76 71 80 -10 10 -65 -21 -105 -58 -29 -28
-38 -30 -91 -28 -56 2 -60 1 -116 -44 -31 -26 -65 -47 -75 -47 -30 0 -150 90
-150 113 0 5 11 23 26 39 14 17 28 43 31 59 7 36 17 44 143 114 111 62 290
176 557 356 90 60 171 109 182 109 11 0 23 -12 32 -31 8 -20 25 -37 46 -45 18
-8 33 -18 33 -23 0 -13 -59 -61 -75 -61 -7 0 -16 11 -19 25 -14 56 -98 55
-112 0 -7 -29 18 -65 45 -65 9 0 23 -5 31 -10 12 -8 8 -16 -25 -50 -21 -22
-44 -40 -50 -40 -7 0 -23 16 -36 37 -44 66 -104 60 -97 -11 2 -25 11 -35 41
-49 20 -10 37 -22 37 -26 0 -5 -42 -45 -92 -91 -111 -99 -148 -137 -148 -151
0 -29 91 52 356 316 160 160 303 310 317 332 29 46 89 86 152 102 22 5 92 26
155 46 69 21 126 34 143 30 18 -3 44 4 75 20 26 13 92 41 147 61 55 20 148 59
207 87 59 28 111 48 114 44 4 -3 1 -20 -6 -37 -21 -52 -4 -45 33 13 41 63 57
75 195 148 57 30 121 69 142 87 35 29 60 40 60 27 0 -13 -36 -75 -85 -145 -29
-41 -78 -116 -109 -167 -31 -51 -62 -95 -68 -99 -6 -4 -25 10 -44 30 -39 42
-56 45 -89 11 -47 -46 -25 -136 35 -149 17 -3 30 -11 30 -17 0 -16 -106 -213
-150 -279 -21 -30 -45 -71 -55 -90 -10 -19 -30 -51 -45 -70 -41 -53 -73 -110
-61 -110 20 0 326 483 431 680 89 166 122 215 158 232 15 7 37 33 50 58 32 65
159 189 139 136 -9 -24 20 -20 33 4 15 28 30 25 30 -7 1 -63 17 -53 39 24 13
43 27 84 33 91 14 16 28 15 28 -3z m2134 -11 c16 -6 23 -34 8 -34 -10 0 -32
22 -32 32 0 10 3 10 24 2z m1419 -30 c45 -20 84 -38 86 -40 3 -3 -10 -18 -27
-34 -35 -32 -40 -63 -21 -119 18 -51 2 -57 -76 -31 -36 12 -69 28 -71 35 -3 6
4 27 15 46 29 50 34 91 18 138 -8 22 -13 41 -10 41 3 0 41 -16 86 -36z m-2029
4 c9 -12 16 -30 16 -40 0 -10 18 -60 40 -112 49 -115 59 -156 37 -156 -34 0
-115 190 -104 246 2 13 -2 32 -9 41 -16 21 -18 43 -5 43 6 0 17 -10 25 -22z
m-1880 -20 c-39 -44 -222 -182 -309 -233 -108 -63 -284 -141 -417 -183 -54
-17 -133 -45 -175 -61 -100 -38 -239 -81 -262 -81 -10 0 -42 -8 -73 -19 -80
-28 -281 -65 -311 -57 -14 3 -32 13 -40 21 -52 52 77 138 318 213 146 46 564
146 572 138 3 -3 0 -12 -6 -20 -7 -8 -11 -25 -9 -38 2 -18 10 -24 37 -26 18
-2 46 2 62 8 36 15 99 84 99 109 0 26 11 33 130 80 58 23 161 71 230 105 69
35 136 64 149 65 24 1 24 1 5 -21z m3171 -28 c34 -33 47 -38 39 -15 -4 9 0 15
8 15 20 0 58 -29 58 -45 0 -8 9 -19 20 -25 20 -11 19 -12 -15 -36 -44 -29 -72
-31 -80 -4 -4 13 -29 31 -63 46 -61 27 -97 27 -45 1 38 -20 56 -43 27 -35 -10
3 -28 9 -39 14 -19 8 -19 7 -3 -18 12 -19 14 -28 5 -37 -8 -8 -7 -11 5 -11 18
0 33 -33 23 -50 -13 -22 -33 -8 -40 27 -4 20 -13 46 -21 57 -8 11 -14 36 -14
55 0 24 -8 41 -27 59 -45 41 -10 37 63 -7 37 -23 72 -41 76 -41 19 0 -4 20
-52 46 -63 34 -64 49 -3 40 33 -4 56 -15 78 -36z m-1079 -19 c38 -26 128 -94
199 -149 72 -56 165 -120 208 -144 108 -58 178 -137 306 -344 58 -93 155 -250
216 -349 158 -253 226 -368 273 -460 23 -44 55 -100 72 -125 16 -25 30 -48 30
-52 0 -4 -13 -23 -30 -41 -30 -34 -30 -35 -15 -77 17 -49 19 -76 5 -85 -18
-11 -68 25 -94 69 -14 24 -47 59 -74 78 -42 31 -58 54 -132 194 -46 87 -101
189 -122 226 -21 36 -38 70 -38 74 0 3 18 4 40 0 56 -9 80 6 80 50 0 26 -8 43
-29 65 -40 39 -81 39 -114 -1 -14 -16 -28 -30 -31 -30 -9 0 -66 107 -66 125 0
15 6 17 40 12 36 -5 41 -3 46 19 9 35 -4 92 -27 115 -25 25 -79 25 -113 -2
-15 -12 -28 -20 -30 -18 -36 52 -67 112 -62 124 3 8 17 15 30 15 56 0 72 91
23 125 -33 23 -66 18 -95 -15 -15 -16 -32 -30 -39 -30 -16 0 -96 117 -88 130
3 5 24 14 45 20 109 29 72 130 -48 130 -29 0 -62 -5 -72 -10 -14 -7 -25 -7
-37 1 -37 25 -320 346 -344 390 -17 33 13 22 87 -30z m-103 -32 c43 -74 107
-223 107 -249 0 -23 -30 -54 -41 -43 -4 4 -24 60 -44 123 -21 63 -48 141 -61
172 -28 66 -28 71 -11 66 6 -3 29 -33 50 -69z m1537 -54 c21 -14 58 -29 81
-34 23 -5 46 -14 52 -20 16 -16 47 -13 47 4 0 19 10 19 38 -1 31 -22 28 -29
-22 -48 -44 -17 -69 -44 -93 -98 -15 -35 -36 -36 -51 -3 -15 34 -31 32 -38 -5
-4 -16 -10 -30 -15 -30 -11 0 -10 -10 -18 102 -5 69 -12 103 -24 116 -19 21
-22 42 -7 42 6 0 28 -11 50 -25z m-1330 -145 c145 -165 404 -530 540 -760 224
-380 315 -539 342 -596 l30 -64 -32 -50 c-18 -28 -37 -49 -43 -47 -6 2 -31 48
-55 103 -99 225 -220 460 -251 488 -17 17 -31 27 -31 24 0 -3 23 -45 52 -94
92 -159 228 -454 209 -454 -19 0 -164 253 -205 357 -13 32 -38 79 -57 105 -32
43 -110 163 -117 180 -2 4 6 15 17 25 26 22 27 47 1 73 -24 24 -63 26 -80 5
-19 -23 -37 -18 -59 19 -23 37 -27 66 -9 66 6 0 20 7 30 17 49 45 -6 123 -88
123 l-43 0 6 -32 c3 -18 12 -45 20 -61 12 -24 12 -28 -1 -33 -25 -10 -48 0
-69 28 -19 26 -19 29 -4 46 12 13 15 28 11 53 -6 34 -5 36 26 43 42 8 60 23
60 50 0 30 -58 84 -95 88 -30 3 -30 3 -33 -52 -5 -95 -21 -87 -90 42 -22 43
-37 80 -31 83 5 4 29 3 54 -1 49 -7 75 5 75 36 0 23 -58 85 -100 107 -27 14
-43 36 -73 96 -21 43 -40 92 -44 110 l-5 32 25 -25 c14 -14 66 -72 117 -130z
m-1781 -8 c0 -75 -4 -146 -9 -157 -7 -16 -9 -12 -10 20 l-1 40 -12 -34 c-7
-19 -18 -37 -26 -39 -11 -4 -13 7 -7 59 4 35 14 79 22 97 8 19 14 53 14 76 0
52 10 87 21 80 5 -3 9 -67 8 -142z m-1779 128 c0 -14 -50 -37 -95 -45 -37 -6
-39 -5 -21 9 11 9 27 16 35 16 9 1 27 7 41 15 30 17 40 18 40 5z m-180 -28 c0
-5 -3 -12 -7 -16 -4 -4 -8 -23 -9 -43 -1 -25 -9 -43 -26 -58 -13 -11 -27 -29
-31 -38 -7 -19 -43 -23 -49 -6 -4 12 -114 -16 -123 -32 -4 -5 -24 -9 -46 -9
-46 0 -44 14 3 26 31 7 29 8 -27 13 -43 4 -60 10 -60 20 0 19 50 48 99 57 34
6 38 5 33 -10 -9 -22 3 -20 68 8 32 15 55 31 55 40 0 9 17 24 38 35 38 21 82
27 82 13z m161 -44 c-25 -20 -61 -24 -61 -8 0 14 62 40 74 33 5 -4 -1 -14 -13
-25z m5293 -17 c5 -8 94 -53 169 -86 21 -9 53 -27 71 -38 40 -27 128 -119 121
-126 -11 -11 -145 -7 -167 5 l-23 13 28 1 c15 0 30 7 34 15 7 20 -6 34 -16 17
-10 -17 -34 -6 -46 21 -9 20 -31 34 -112 71 -28 12 -33 12 -33 0 0 -8 -7 -14
-15 -14 -8 0 -15 -4 -15 -9 0 -5 7 -11 15 -15 25 -9 18 -28 -7 -21 -32 10 -48
33 -48 71 0 18 -4 36 -10 39 -11 7 -14 48 -3 58 9 10 51 9 57 -2z m-5289 -20
c-3 -6 -16 -11 -28 -11 -21 1 -21 1 3 15 27 14 36 13 25 -4z m1885 -16 c0 -14
-4 -25 -10 -25 -5 0 -10 11 -10 25 0 14 5 25 10 25 6 0 10 -11 10 -25z m1350
11 c0 -8 -4 -17 -9 -21 -12 -7 -24 12 -16 25 9 15 25 12 25 -4z m-825 -16 c3
-5 -1 -10 -9 -10 -9 0 -16 5 -16 10 0 6 4 10 9 10 6 0 13 -4 16 -10z m55 -39
c0 -38 -13 -61 -24 -43 -8 13 5 82 15 82 5 0 9 -18 9 -39z m-770 15 c0 -17
-14 -29 -23 -20 -8 8 3 34 14 34 5 0 9 -6 9 -14z m1268 -48 c-2 -24 -7 -42
-13 -41 -13 3 -18 29 -11 59 11 40 27 27 24 -18z m340 15 c6 -19 -25 -16 -32
3 -4 11 -1 14 11 12 9 -2 18 -9 21 -15z m-1659 -184 c1 -158 -7 -232 -23 -226
-8 3 -17 -40 -29 -141 -20 -160 -36 -212 -38 -122 l-1 55 -13 -70 c-18 -92
-50 -195 -70 -220 -16 -20 -16 -19 -11 5 3 14 12 49 20 78 27 96 60 439 40
419 -4 -4 -13 -78 -20 -164 -10 -114 -22 -188 -44 -266 -29 -105 -88 -238
-111 -253 -13 -8 -9 8 28 106 60 161 86 293 101 520 7 99 6 130 -4 147 -17 27
-4 36 30 24 22 -9 25 -7 28 16 3 27 28 46 28 21 0 -7 11 -23 24 -35 l23 -22 7
52 c3 28 6 82 6 118 0 37 3 81 7 100 12 61 22 2 22 -142z m1591 136 c0 -14 -4
-25 -10 -25 -5 0 -10 11 -10 25 0 14 5 25 10 25 6 0 10 -11 10 -25z m118 -136
c3 -53 1 -79 -7 -84 -7 -4 -14 -5 -16 -3 -2 2 -6 55 -9 118 -6 112 -6 114 10
80 9 -19 19 -69 22 -111z m-3383 104 c-98 -52 -200 -66 -230 -33 -17 18 -16
19 6 25 43 11 234 32 243 27 5 -3 -4 -11 -19 -19z m2950 -53 c7 -34 -3 -60
-16 -39 -9 15 -20 -23 -16 -56 1 -14 -5 -21 -20 -23 -18 -3 -23 -10 -23 -33 0
-34 -15 -39 -24 -6 -10 38 -7 76 8 84 8 4 15 17 17 28 2 11 14 24 27 30 12 5
22 18 22 27 0 29 18 20 25 -12z m-3236 1 c51 -27 67 -47 51 -66 -14 -17 -231
-132 -266 -141 -27 -7 -29 -2 -13 28 8 14 7 28 -2 49 -21 52 -76 65 -116 27
-34 -32 -28 -53 22 -88 25 -17 45 -36 45 -43 0 -13 -130 -87 -152 -87 -9 0
-13 17 -13 58 0 48 -5 63 -30 97 -39 52 -47 57 -65 40 -9 -10 -14 -36 -15 -73
0 -49 5 -65 28 -95 46 -60 63 -44 -203 -187 -80 -43 -171 -94 -204 -113 -32
-20 -84 -41 -115 -47 -31 -7 -73 -18 -95 -26 -25 -9 -44 -10 -56 -4 -21 11
-61 100 -68 152 -4 37 -3 38 42 58 52 22 68 46 43 65 -12 9 -15 21 -11 42 4
20 1 35 -10 46 -20 19 -20 50 -1 86 15 30 46 41 116 41 46 0 79 13 140 57 72
51 103 60 249 73 74 7 162 18 195 26 90 21 295 31 305 14 7 -11 22 -9 82 7 40
11 74 21 76 22 1 0 20 -8 41 -18z m3753 -5 c5 -23 -6 -56 -15 -46 -2 3 -7 20
-10 38 -5 23 -3 32 7 32 8 0 16 -11 18 -24z m1848 14 c8 -5 11 -12 8 -16 -10
-9 -38 3 -38 16 0 12 10 13 30 0z m-1062 -41 c77 -34 211 -122 276 -179 47
-42 176 -204 176 -222 0 -4 -15 -8 -33 -8 -45 0 -126 -54 -143 -95 -27 -66
-39 -64 -89 16 -63 98 -63 95 -10 91 56 -5 98 11 130 50 32 37 33 81 3 102
-43 30 -68 20 -136 -50 -54 -56 -66 -65 -77 -53 -7 8 -39 61 -70 119 -32 58
-79 136 -106 174 -27 39 -49 76 -49 84 0 18 46 8 128 -29z m-825 -11 c10 -60
20 -213 13 -206 -14 12 -35 123 -36 181 0 62 14 77 23 25z m-1593 -7 c0 -17
-4 -33 -10 -36 -6 -4 -10 8 -10 29 0 20 5 36 10 36 6 0 10 -13 10 -29z m260
-1 c0 -16 -4 -30 -10 -30 -5 0 -10 14 -10 30 0 17 5 30 10 30 6 0 10 -13 10
-30z m3155 15 c102 -20 171 -39 267 -76 43 -16 88 -29 100 -29 22 0 22 1 -7
25 -36 29 -35 29 114 10 64 -8 158 -18 208 -23 56 -6 103 -16 118 -26 14 -9
48 -48 75 -86 47 -63 101 -110 129 -110 6 0 28 16 50 35 21 19 46 35 56 35 26
0 153 -92 159 -116 7 -25 -7 -77 -29 -110 -19 -30 -46 -31 -71 -3 -27 30 -79
62 -149 89 -33 14 -78 36 -100 51 -81 53 -355 174 -378 166 -7 -2 88 -54 209
-115 122 -60 241 -123 265 -139 24 -15 78 -46 119 -68 67 -36 78 -46 112 -105
42 -75 47 -114 18 -170 -24 -46 -37 -49 -110 -20 -28 11 -69 20 -92 20 -33 0
-49 7 -83 38 -24 20 -55 46 -71 56 l-28 20 31 13 c64 26 80 82 37 132 -45 54
-87 32 -103 -53 -5 -26 -11 -49 -14 -53 -5 -5 -127 96 -127 106 0 2 18 23 40
47 22 24 40 52 40 62 0 18 -26 61 -44 74 -38 26 -106 -15 -107 -65 0 -18 -3
-40 -7 -49 -7 -17 -8 -17 -33 0 -100 66 -110 76 -104 96 27 84 18 121 -34 137
-53 16 -66 9 -81 -45 -7 -25 -16 -46 -21 -46 -5 0 -64 29 -131 64 -124 65
-266 120 -296 114 -9 -2 33 -25 93 -52 339 -150 518 -250 680 -378 33 -26 112
-88 176 -137 114 -88 117 -91 124 -138 4 -26 18 -69 33 -96 20 -37 23 -50 13
-60 -13 -13 -12 -13 -107 51 -41 28 -55 32 -88 27 -36 -5 -42 -2 -120 68 -44
40 -119 102 -165 137 -46 35 -116 91 -155 125 -136 118 -338 239 -493 295 -35
12 -63 27 -63 33 0 11 16 66 32 106 6 15 5 28 -3 37 -9 11 -9 21 -1 37 6 12
13 34 16 50 7 32 0 31 101 12z m-3367 -63 c-3 -14 -6 -14 -16 6 -7 12 -10 27
-6 33 9 15 27 -16 22 -39z m-96 -227 l-9 -70 -2 55 c-2 67 -21 50 -21 -20 0
-25 -5 -52 -10 -60 -7 -10 -10 24 -10 105 0 115 7 151 26 143 5 -1 10 15 12
37 1 22 6 47 10 55 11 23 14 -166 4 -245z m-1982 174 l45 -51 98 24 c54 13
100 21 103 16 9 -14 -12 -41 -81 -108 -62 -59 -69 -63 -76 -44 -4 12 -22 31
-41 42 -18 12 -40 27 -49 34 -14 10 -55 -13 -257 -145 -132 -86 -245 -157
-251 -157 -6 0 -14 14 -18 31 -3 17 -16 37 -28 45 -49 32 -82 -23 -50 -83 11
-20 15 -37 9 -43 -8 -8 -122 -73 -209 -120 -16 -9 -48 -28 -70 -43 -27 -17
-60 -28 -100 -33 -33 -4 -74 -15 -91 -25 -34 -20 -74 -25 -74 -9 0 5 15 27 34
47 18 21 37 53 41 71 4 18 16 42 28 53 39 36 395 242 686 396 157 83 291 152
296 152 6 1 30 -22 55 -50z m3680 15 c0 -13 -4 -24 -10 -24 -5 0 -10 14 -10
31 0 17 4 28 10 24 6 -3 10 -17 10 -31z m-1600 -49 c0 -19 -4 -35 -10 -35 -5
0 -10 16 -10 35 0 19 5 35 10 35 6 0 10 -16 10 -35z m-50 -22 c0 -28 -3 -34
-10 -23 -13 20 -13 60 0 60 6 0 10 -17 10 -37z m1705 -14 c4 -16 18 -40 31
-52 25 -23 44 -97 44 -166 0 -27 -3 -32 -10 -21 -5 8 -10 29 -10 47 0 41 -21
96 -27 71 -11 -44 -36 -1 -53 91 -10 53 -6 76 10 66 5 -3 11 -19 15 -36z
m1148 5 c56 -19 136 -42 179 -50 42 -8 102 -23 134 -34 31 -11 68 -20 81 -20
27 0 180 -66 203 -88 13 -12 13 -15 -5 -25 -25 -15 -67 -58 -80 -81 -10 -17
-18 -12 -78 49 -36 38 -69 66 -73 62 -3 -3 15 -31 42 -62 52 -61 53 -86 3 -93
-33 -5 -56 -28 -91 -89 -17 -29 -36 -53 -44 -53 -16 0 -76 89 -68 101 3 5 23
13 45 19 34 9 44 18 60 53 26 58 24 70 -16 106 -40 35 -54 37 -95 16 -36 -19
-60 -52 -60 -83 0 -22 -2 -23 -16 -11 -9 8 -42 47 -72 89 -31 41 -84 108 -119
147 -35 40 -63 75 -63 78 0 11 36 3 133 -31z m-1343 -20 c0 -14 -4 -22 -10
-19 -5 3 -10 17 -10 31 0 14 4 22 10 19 6 -3 10 -17 10 -31z m150 -30 c0 -14
-4 -22 -10 -19 -5 3 -10 17 -10 31 0 14 4 22 10 19 6 -3 10 -17 10 -31z
m-2058 -8 c-3 -28 1 -37 22 -51 24 -16 25 -20 12 -34 -8 -9 -33 -98 -55 -198
-44 -194 -45 -202 -33 -187 15 16 40 116 57 219 18 111 35 147 35 72 0 -129
-106 -473 -161 -523 -19 -17 -19 -16 -13 14 8 40 -4 42 -17 2 -6 -16 -16 -30
-21 -30 -13 0 -6 43 16 95 9 22 10 32 3 21 -6 -10 -20 -28 -30 -40 -18 -21
-18 -21 -13 21 4 23 17 77 31 120 27 89 57 208 48 199 -3 -3 -25 -63 -48 -133
-56 -166 -75 -212 -105 -256 -24 -35 -49 -51 -37 -24 44 95 86 217 132 377 51
176 59 197 90 226 21 19 35 41 35 55 0 21 38 89 50 89 4 0 4 -15 2 -34z m1468
15 c0 -11 -4 -23 -10 -26 -6 -4 -10 5 -10 19 0 14 5 26 10 26 6 0 10 -9 10
-19z m234 3 c3 -9 6 -35 6 -58 0 -48 17 -106 31 -106 5 0 9 -4 9 -10 0 -21
-40 -10 -44 13 -5 22 -26 161 -26 171 0 13 18 5 24 -10z m76 -13 c0 -17 11
-42 25 -60 15 -17 34 -62 46 -108 26 -100 118 -374 131 -390 5 -7 8 -20 5 -30
-3 -13 -10 -4 -26 30 -12 26 -26 47 -31 47 -13 0 -13 -16 0 -41 8 -13 7 -19 0
-19 -10 0 -40 59 -40 79 0 5 6 11 14 13 10 2 11 9 4 28 -9 23 -11 23 -17 6 -6
-17 -10 -14 -31 19 -31 50 -37 32 -10 -30 11 -26 19 -49 17 -51 -11 -11 -59
27 -73 58 -9 20 -27 47 -40 59 -27 25 -31 49 -9 49 18 0 39 -32 55 -83 7 -21
14 -36 17 -33 3 3 -4 37 -16 75 -17 57 -26 71 -41 71 -11 0 -20 2 -20 4 0 2
-3 11 -6 20 -4 11 -1 16 11 16 14 0 16 7 13 40 -2 22 -1 40 3 40 7 0 39 -96
39 -119 0 -17 29 -64 30 -48 0 4 -9 40 -19 80 -11 39 -25 107 -32 150 -9 53
-16 73 -22 62 -4 -8 -5 -24 -2 -35 4 -11 2 -20 -3 -20 -5 0 -13 26 -16 58 -4
31 -9 65 -12 75 -4 13 1 17 25 17 28 0 31 -3 31 -29z m-1383 -48 c-3 -10 -5
-2 -5 17 0 19 2 27 5 18 2 -10 2 -26 0 -35z m780 31 c5 -13 15 -15 48 -11 64
9 82 -17 44 -63 l-21 -24 -19 24 c-18 24 -19 24 -19 4 0 -11 11 -53 25 -92 27
-77 31 -144 14 -206 -15 -56 -29 -31 -18 34 13 79 -7 149 -47 164 -12 4 -13
-4 -8 -48 5 -37 3 -56 -6 -61 -44 -27 -74 197 -35 263 21 36 33 40 42 16z
m163 -8 c0 -13 -7 -29 -15 -36 -12 -10 -15 -9 -15 8 0 27 10 52 21 52 5 0 9
-11 9 -24z m-894 -102 c-3 -8 -10 -14 -16 -14 -14 0 -13 73 2 107 12 27 13 26
16 -26 2 -29 1 -60 -2 -67z m1514 73 l-1 -32 -15 28 c-8 15 -12 32 -9 37 11
18 25 -1 25 -33z m-1186 1 c3 -7 7 -32 10 -56 6 -41 6 -42 -19 -36 -24 6 -25
4 -25 -40 0 -48 -13 -62 -24 -23 -12 45 -6 94 14 117 11 13 20 29 20 37 0 17
19 17 24 1z m1312 -55 c-12 -12 -26 11 -25 40 l1 32 14 -34 c8 -18 13 -36 10
-38z m-1165 29 c15 -38 -10 -95 -44 -99 -28 -4 -77 45 -77 77 0 24 36 46 77
47 28 1 36 -4 44 -25z m107 -17 l3 -40 -23 26 c-14 15 -31 29 -39 32 -12 5
-12 7 1 16 8 6 24 10 35 9 16 -2 21 -12 23 -43z m52 16 c0 -11 -4 -23 -10 -26
-6 -4 -10 5 -10 19 0 14 5 26 10 26 6 0 10 -9 10 -19z m491 -18 c5 -15 8 -41
7 -57 l-4 -31 -10 25 c-17 40 -25 90 -14 90 6 0 15 -12 21 -27z m445 -10 c8
-52 41 -212 49 -245 4 -16 3 -28 -2 -28 -12 0 -51 134 -58 205 -4 33 -9 70
-12 83 -3 12 0 22 5 22 6 0 14 -17 18 -37z m-36 -53 c0 -5 -7 -10 -16 -10 -8
0 -12 5 -9 10 3 6 10 10 16 10 5 0 9 -4 9 -10z m109 -82 l21 -83 -6 68 c-3 41
-1 67 5 67 16 0 27 -29 41 -103 7 -37 15 -69 19 -71 3 -2 5 27 3 65 -4 73 8
91 26 37 9 -31 10 -29 11 27 1 33 5 55 10 50 4 -6 20 -57 36 -115 36 -140 78
-262 135 -395 56 -129 65 -155 52 -155 -10 0 -84 128 -107 188 -10 23 -21 42
-26 42 -5 0 -2 -17 7 -37 34 -79 30 -103 -6 -33 -29 56 -110 248 -110 259 0 6
-5 13 -10 16 -13 8 -5 -29 21 -103 10 -29 19 -60 19 -69 0 -28 -29 5 -42 48
-6 22 -15 39 -19 39 -5 0 -4 -12 1 -26 18 -45 11 -49 -23 -12 -18 19 -33 47
-35 62 -1 15 -13 70 -26 124 -32 126 -41 192 -28 192 6 0 20 -37 31 -82z
m1880 53 c64 -33 68 -46 23 -75 -70 -44 -101 -103 -70 -134 7 -7 32 -12 55
-12 50 0 93 33 93 72 0 34 11 68 21 68 25 0 480 -378 513 -426 20 -29 46 -114
46 -149 0 -26 -6 -34 -35 -48 -52 -25 -70 -22 -135 24 -52 37 -64 42 -114 41
l-57 0 -231 234 c-127 129 -238 243 -245 254 -13 19 -12 24 16 55 16 19 35 53
41 75 12 46 24 49 79 21z m-3703 -89 c-13 -12 -18 9 -10 45 l8 38 4 -39 c2
-21 1 -41 -2 -44z m824 52 c12 -32 13 -94 1 -94 -5 0 -14 7 -21 15 -21 26 -27
17 -39 -60 -7 -41 -17 -75 -22 -75 -5 0 -9 9 -9 20 0 11 -9 43 -20 72 l-20 52
26 33 c14 18 33 33 43 33 11 0 21 7 25 15 8 23 25 18 36 -11z m2254 -21 c13
-21 47 -65 76 -98 28 -33 79 -100 112 -150 34 -49 115 -165 180 -257 106 -149
120 -173 129 -227 13 -70 7 -106 -19 -120 -10 -5 -57 -13 -104 -17 l-85 -7
-53 77 c-49 70 -57 77 -105 91 -63 19 -68 25 -132 140 -27 50 -72 126 -100
170 -88 141 -153 253 -153 264 0 6 12 8 29 5 64 -13 171 57 171 111 0 30 10
55 21 55 5 0 20 -17 33 -37z m-1046 -20 c10 -38 74 -242 98 -312 2 -8 7 -11
10 -8 3 3 -11 59 -31 126 -40 131 -45 202 -8 121 47 -106 164 -441 161 -462
-4 -23 -4 -23 -18 5 -23 46 -31 30 -11 -23 32 -84 69 -140 93 -140 17 0 19 -3
10 -12 -8 -8 -18 -9 -36 0 -39 18 -206 364 -252 522 -37 131 -53 230 -37 230
5 0 14 -21 21 -47z m-1367 -5 c13 -51 21 -186 11 -192 -6 -3 -13 7 -17 22 -5
24 -10 28 -30 24 -20 -3 -25 1 -31 23 -14 57 19 162 49 152 6 -2 14 -15 18
-29z m-1111 -7 c0 -37 -72 -256 -111 -341 -50 -106 -97 -180 -115 -180 -15 0
-3 35 60 173 20 42 55 135 80 205 24 70 47 135 51 145 10 23 35 22 35 -2z
m2667 -31 c12 0 29 -10 38 -22 63 -88 301 -535 291 -546 -10 -9 -34 29 -121
188 -130 238 -157 281 -217 343 -32 32 -58 66 -58 75 1 13 6 10 23 -10 13 -16
32 -28 44 -28z m1363 -82 c52 -56 175 -185 272 -287 l178 -186 0 -67 c0 -79
-8 -87 -103 -111 l-58 -15 -47 47 c-63 62 -124 92 -178 84 -41 -5 -41 -5 -71
48 -17 30 -79 119 -137 198 -58 79 -106 149 -106 157 0 7 18 23 39 34 35 17
91 75 91 93 0 4 -11 7 -25 7 -28 0 -33 25 -14 63 31 59 52 51 159 -65z m-3068
70 c3 -7 13 -13 23 -13 29 0 42 -30 22 -53 -9 -10 -17 -26 -17 -36 0 -9 -4
-14 -10 -11 -5 3 -10 14 -10 24 0 10 -7 24 -15 31 -16 13 -21 70 -6 70 5 0 11
-6 13 -12z m-517 -55 c-8 -73 -25 -94 -25 -32 0 54 9 89 22 89 7 0 8 -21 3
-57z m89 25 c3 -13 2 -26 -3 -31 -11 -11 -34 20 -27 38 8 22 23 18 30 -7z
m-141 -45 c-8 -65 -13 -67 -13 -5 0 29 4 52 10 52 6 0 7 -19 3 -47z m1496 15
c10 -27 2 -46 -10 -27 -10 15 -12 49 -4 49 3 0 9 -10 14 -22z m391 -75 c0 -20
-18 -16 -30 7 -15 28 -1 49 17 25 7 -11 13 -25 13 -32z m-2405 -25 c-10 -29
-44 -111 -77 -181 -32 -70 -58 -131 -58 -134 0 -10 -43 -53 -53 -53 -14 0 3
60 35 124 16 32 47 99 68 148 38 87 87 165 97 154 3 -2 -3 -29 -12 -58z m1435
-18 l0 -60 -40 0 c-22 0 -40 2 -40 5 0 3 10 25 21 48 44 87 59 88 59 7z m1354
-9 c14 -32 26 -64 26 -70 0 -6 5 -11 11 -11 6 0 9 9 6 20 -8 30 5 24 37 -16
16 -21 33 -57 38 -83 4 -25 24 -85 43 -134 38 -95 44 -127 21 -108 -8 7 -33
64 -57 127 -23 63 -46 117 -51 120 -13 8 -10 -12 12 -73 23 -67 23 -63 10 -63
-20 0 -66 113 -135 338 -3 6 -1 12 4 12 5 0 20 -26 35 -59z m-1276 17 c30 -30
-1 -74 -33 -48 -18 15 -20 46 -2 53 19 8 22 8 35 -5z m1471 -284 c28 -58 51
-110 51 -115 0 -5 9 -22 20 -37 10 -15 22 -40 26 -57 19 -88 -81 99 -163 303
-3 6 0 12 5 12 6 0 34 -48 61 -106z m94 -98 c27 -56 15 -67 -16 -15 -30 51
-33 63 -14 57 6 -3 20 -21 30 -42z m-373 -18 c0 -6 -7 -5 -15 2 -8 7 -15 17
-15 22 0 6 7 5 15 -2 8 -7 15 -17 15 -22z m253 -39 c15 -22 27 -45 27 -50 0
-18 -40 11 -55 41 -32 62 -11 69 28 9z"/>
<path d="M1460 5880 c-24 -24 -25 -43 -3 -80 13 -23 14 -34 5 -54 -10 -23 -10
-24 16 -16 64 20 98 33 111 45 11 11 10 14 -7 19 -13 5 -22 19 -27 44 -4 20
-11 43 -17 50 -16 18 -55 15 -78 -8z"/>
<path d="M1644 5805 c-10 -8 -14 -15 -8 -15 5 0 19 7 30 15 10 8 14 15 8 15
-5 0 -19 -7 -30 -15z"/>
<path d="M910 5405 c-21 -26 -18 -100 6 -132 26 -35 68 -52 92 -37 39 25 13
131 -40 168 -28 20 -42 20 -58 1z"/>
<path d="M1556 5317 c-49 -49 -26 -149 49 -215 41 -36 79 -49 99 -33 7 6 19
38 26 70 14 68 2 106 -53 159 -46 45 -89 51 -121 19z"/>
<path d="M736 5274 c-22 -21 -20 -62 3 -101 25 -40 56 -51 82 -27 30 27 25 79
-10 115 -33 33 -52 36 -75 13z"/>
<path d="M1085 5116 c-15 -23 -15 -27 4 -63 26 -50 76 -103 96 -103 9 0 27 8
40 19 l24 18 -28 60 c-43 91 -103 121 -136 69z"/>
<path d="M967 5043 c-15 -14 -6 -81 14 -107 37 -48 97 -26 85 32 -12 52 -75
100 -99 75z"/>
<path d="M1510 5020 c-12 -8 -11 -10 7 -10 12 0 25 5 28 10 8 13 -15 13 -35 0z"/>
<path d="M1551 4954 c-26 -33 -28 -108 -5 -162 47 -113 174 -139 174 -35 0 43
-33 136 -65 185 -32 48 -72 52 -104 12z"/>
<path d="M1320 4875 c-11 -13 -11 -29 -1 -84 24 -131 82 -217 131 -191 79 42
33 222 -71 276 -35 18 -44 18 -59 -1z"/>
<path d="M1200 4835 c-16 -19 -8 -87 14 -120 35 -53 82 -17 70 53 -12 72 -53
104 -84 67z"/>
<path d="M6062 5253 c-43 -21 -87 -98 -101 -175 -17 -100 12 -204 72 -254 29
-25 36 -26 102 -21 55 5 74 11 87 27 58 71 47 292 -18 377 -25 33 -71 63 -96
63 -7 0 -28 -8 -46 -17z"/>
<path d="M6654 5248 c-78 -20 -144 -146 -144 -272 0 -133 65 -216 168 -216 36
0 50 6 77 33 97 97 58 422 -55 459 -8 3 -29 1 -46 -4z"/>
<path d="M6031 4712 c-71 -38 -91 -145 -52 -271 32 -103 82 -153 128 -127 44
24 102 105 110 153 20 125 1 195 -67 240 -40 28 -74 29 -119 5z"/>
<path d="M6611 4641 c-51 -21 -84 -57 -100 -111 -16 -55 -14 -69 14 -82 29
-13 33 -28 8 -28 -38 0 -46 -15 -28 -51 28 -54 75 -109 93 -109 39 1 117 56
146 104 54 88 47 218 -15 271 -36 29 -58 30 -118 6z"/>
<path d="M538 5545 c-79 -43 -58 -149 34 -177 37 -11 42 -10 55 8 9 12 11 28
7 44 -4 14 -12 50 -18 80 -13 61 -30 71 -78 45z"/>
<path d="M2479 5520 c-25 -25 -28 -33 -19 -50 15 -29 57 -47 78 -34 40 26 34
114 -9 114 -11 0 -34 -13 -50 -30z"/>
<path d="M12238 5441 c-28 -25 -32 -35 -33 -82 0 -52 1 -54 28 -57 39 -5 87
45 87 90 0 34 -23 78 -40 78 -6 0 -24 -13 -42 -29z"/>
<path d="M9612 5203 c-31 -6 -62 -59 -62 -106 0 -54 24 -105 55 -117 44 -17
115 -12 161 12 l44 22 0 56 c0 67 -17 95 -74 121 -39 18 -75 21 -124 12z"/>
<path d="M11884 5022 c-20 -13 -45 -73 -42 -100 4 -40 40 -41 67 -4 25 36 27
74 5 96 -18 18 -16 18 -30 8z"/>
<path d="M2259 4429 c-27 -27 -20 -81 19 -152 45 -83 104 -111 136 -65 28 39
14 104 -33 157 -11 13 -21 31 -21 41 0 42 -65 55 -101 19z"/>
<path d="M10221 4588 c-59 -79 -91 -149 -91 -200 0 -50 13 -68 50 -68 35 1 66
27 89 80 12 25 37 72 56 105 19 33 35 74 35 91 0 28 -3 32 -37 38 -59 9 -60 9
-102 -46z"/>
<path d="M10449 4517 c-40 -26 -62 -67 -86 -159 -16 -62 -16 -69 -1 -102 22
-46 52 -55 85 -24 30 28 109 188 118 239 12 67 -49 91 -116 46z"/>
<path d="M10675 4406 c-26 -26 -98 -164 -109 -210 -5 -19 -2 -36 9 -52 30 -46
75 -24 133 63 21 30 49 73 65 96 15 23 27 53 27 67 0 59 -80 81 -125 36z"/>
<path d="M11107 4729 c-23 -13 -107 -194 -107 -230 0 -31 23 -59 48 -59 37 0
90 49 121 111 40 80 40 121 2 160 -32 32 -38 33 -64 18z"/>
<path d="M5235 4610 c-16 -16 -25 -30 -21 -30 13 0 66 41 66 51 0 17 -16 9
-45 -21z"/>
<path d="M9704 4335 c-46 -49 -61 -102 -41 -142 22 -41 66 -59 103 -41 56 27
90 114 68 173 -7 18 -55 45 -80 45 -9 0 -32 -16 -50 -35z"/>
<path d="M9955 4196 c-31 -31 -51 -99 -39 -133 21 -61 80 -56 119 10 30 53 32
86 4 121 -25 32 -53 33 -84 2z"/>
<path d="M5481 4191 c-8 -17 -11 -34 -8 -38 8 -7 29 46 24 60 -2 6 -9 -4 -16
-22z"/>
<path d="M5415 4190 c-10 -11 -16 -22 -13 -25 3 -3 13 6 22 20 20 30 16 32 -9
5z"/>
<path d="M5236 3982 c-49 -97 -86 -202 -86 -246 0 -68 51 -101 84 -54 25 35
20 81 -10 107 -23 20 -26 29 -21 66 2 24 19 72 36 105 18 34 30 64 27 67 -2 3
-16 -18 -30 -45z"/>
<path d="M4780 3655 c-5 -14 -10 -42 -10 -60 0 -39 20 -55 69 -55 35 0 66 37
57 68 -9 27 -46 59 -78 67 -24 6 -29 3 -38 -20z"/>
<path d="M5066 3566 c-21 -44 -20 -59 2 -79 36 -33 72 -14 72 38 0 34 -24 75
-44 75 -8 0 -21 -15 -30 -34z"/>
<path d="M3822 3468 c-30 -30 2 -135 46 -153 63 -26 74 -25 104 6 24 23 29 36
25 57 -11 54 -27 83 -52 92 -36 14 -109 12 -123 -2z"/>
<path d="M4657 3452 c-25 -27 -22 -78 5 -96 29 -21 51 -20 71 2 20 22 22 83 5
100 -18 18 -63 14 -81 -6z"/>
<path d="M4152 3362 c-84 -13 -16 -158 83 -176 54 -10 85 13 85 63 0 31 -7 46
-31 70 -17 17 -34 31 -37 31 -4 0 -23 4 -42 8 -19 4 -45 6 -58 4z"/>
<path d="M3690 3291 c-35 -67 27 -151 113 -151 40 0 67 25 67 64 0 68 -151
141 -180 87z"/>
<path d="M4532 3258 c-30 -30 2 -108 44 -108 42 0 60 72 26 103 -22 20 -53 22
-70 5z"/>
<path d="M4033 3185 c-9 -26 4 -97 24 -124 28 -37 68 -47 109 -28 64 31 53 91
-26 145 -38 26 -98 30 -107 7z"/>
<path d="M3550 3151 c-14 -26 -12 -92 3 -112 30 -39 97 -48 134 -18 29 25 6
97 -43 134 -28 21 -81 19 -94 -4z"/>
<path d="M4366 3011 c-27 -30 -3 -91 35 -91 25 0 59 35 59 59 0 47 -62 67 -94
32z"/>
<path d="M8497 4233 c-22 -6 -12 -23 14 -23 10 0 19 7 19 15 0 15 -2 16 -33 8z"/>
<path d="M8363 2922 c-12 -7 -16 -25 -14 -55 1 -23 54 -77 75 -77 38 0 45 90
10 125 -16 16 -51 20 -71 7z"/>
<path d="M5453 3595 c0 -33 2 -45 4 -27 2 18 2 45 0 60 -2 15 -4 0 -4 -33z"/>
<path d="M3155 3770 c-19 -8 -19 -9 3 -9 12 -1 22 4 22 9 0 6 -1 10 -2 9 -2 0
-12 -4 -23 -9z"/>
<path d="M2895 3682 c-42 -16 -63 -28 -51 -30 20 -4 99 23 131 45 30 20 0 14
-80 -15z"/>
<path d="M2724 3610 c-12 -5 -25 -14 -29 -20 -9 -14 24 -6 65 16 22 11 22 13
5 13 -11 0 -30 -4 -41 -9z"/>
<path d="M2840 3560 c-6 -12 -10 -38 -8 -58 2 -30 7 -38 27 -40 34 -5 71 17
71 43 0 30 -37 75 -60 75 -11 0 -24 -9 -30 -20z"/>
<path d="M2544 3530 c-64 -31 -126 -81 -108 -87 13 -4 130 60 170 93 40 33 12
30 -62 -6z"/>
<path d="M9535 3691 c7 -13 75 -35 82 -27 3 3 -10 13 -30 21 -41 17 -61 19
-52 6z"/>
<path d="M9681 3254 c-41 -53 -15 -104 53 -104 41 0 58 25 49 73 -6 31 -18 42
-55 51 -21 5 -31 1 -47 -20z"/>
<path d="M5246 3355 c-3 -9 -6 -26 -5 -38 1 -14 4 -9 9 13 9 37 7 52 -4 25z"/>
<path d="M5181 3093 c-11 -37 -19 -69 -17 -70 5 -5 32 66 41 105 12 57 -3 34
-24 -35z"/>
<path d="M7110 3411 c0 -24 31 -136 41 -145 12 -13 12 -13 -10 72 -19 71 -31
100 -31 73z"/>
<path d="M6182 3460 c0 -19 2 -27 5 -17 2 9 2 25 0 35 -3 9 -5 1 -5 -18z"/>
<path d="M7520 3221 c0 -26 42 -176 52 -186 7 -7 9 -4 5 10 -3 11 -15 56 -27
100 -22 79 -30 100 -30 76z"/>
<path d="M9432 3136 c-61 -69 -48 -135 23 -120 50 11 64 23 71 61 16 87 -38
122 -94 59z"/>
<path d="M8642 3143 c-39 -19 -82 -68 -82 -93 0 -59 52 -97 115 -86 45 9 65
39 65 99 0 38 -5 53 -25 72 -28 29 -30 29 -73 8z"/>
<path d="M7727 2933 c8 -21 19 -49 24 -62 5 -13 12 -22 14 -19 8 7 -36 118
-46 118 -4 0 -1 -17 8 -37z"/>
<path d="M9062 3117 c-28 -30 -64 -111 -56 -130 7 -19 42 -29 65 -17 29 16 69
70 69 95 0 69 -38 95 -78 52z"/>
</g>
</svg>
