<svg xmlns="http://www.w3.org/2000/svg" xmlns:xlink="http://www.w3.org/1999/xlink" version="1.1" width="108.336" height="108.336" style="enable-background:new 0 0 108.336 108.336;" xml:space="preserve"><rect id="backgroundrect" width="100%" height="100%" x="0" y="0" fill="none" stroke="none"/>
















<g class="currentLayer" style=""><title>Layer 1</title><g id="svg_1" class="" fill="#ffffff" fill-opacity="1">
	<path d="M54.168,0C24.3,0,0,24.3,0,54.168c0,29.869,24.3,54.168,54.168,54.168s54.168-24.299,54.168-54.168   C108.336,24.3,84.036,0,54.168,0z M91.87,91.701C81.457,102.075,68.966,107.26,54.4,107.26c-8.225,0-15.262-5.186-21.113-15.559   c-5.853-10.373-8.777-22.883-8.777-37.533c0-14.607,2.924-27.108,8.776-37.5C39.138,6.274,46.175,1.076,54.4,1.076   c14.566,0,27.058,5.198,37.47,15.592c10.414,10.392,15.622,22.893,15.622,37.5C107.492,68.818,102.284,81.328,91.87,91.701z" id="svg_2" fill="#ffffff" fill-opacity="1"/>
</g><g id="svg_3" class="" fill="#ffffff" fill-opacity="1">
</g><g id="svg_4" class="" fill="#ffffff" fill-opacity="1">
</g><g id="svg_5" class="" fill="#ffffff" fill-opacity="1">
</g><g id="svg_6" class="" fill="#ffffff" fill-opacity="1">
</g><g id="svg_7" class="" fill="#ffffff" fill-opacity="1">
</g><g id="svg_8" class="" fill="#ffffff" fill-opacity="1">
</g><g id="svg_9" class="" fill="#ffffff" fill-opacity="1">
</g><g id="svg_10" class="" fill="#ffffff" fill-opacity="1">
</g><g id="svg_11" class="" fill="#ffffff" fill-opacity="1">
</g><g id="svg_12" class="" fill="#ffffff" fill-opacity="1">
</g><g id="svg_13" class="" fill="#ffffff" fill-opacity="1">
</g><g id="svg_14" class="" fill="#ffffff" fill-opacity="1">
</g><g id="svg_15" class="" fill="#ffffff" fill-opacity="1">
</g><g id="svg_16" class="" fill="#ffffff" fill-opacity="1">
</g><g id="svg_17" class="" fill="#ffffff" fill-opacity="1">
</g></g></svg>