<svg xmlns="http://www.w3.org/2000/svg" version="1.0" width="1280.000000" height="640.000000" preserveAspectRatio="xMidYMid meet"><rect id="backgroundrect" width="100%" height="100%" x="0" y="0" fill="none" stroke="none"/>
<metadata>
Created by potrace 1.15, written by Peter Selinger 2001-2017
</metadata>

<g class="currentLayer" style=""><title>Layer 1</title><g transform="translate(0,640) scale(0.10000000149011612,-0.10000000149011612) " fill="#ffffff" stroke="none" id="svg_1" class="selected" fill-opacity="1">
<path d="M9238.20687675476,5439 c-74,-27 -144,-49 -158,-49 c-31,0 -86,-50 -135,-121 c-21,-32 -44,-61 -50,-65 c-6,-4 -48,-13 -93,-21 c-44,-7 -108,-22 -141,-33 c-33,-10 -139,-44 -236,-74 c-170,-54 -179,-58 -268,-126 c-160,-121 -285,-168 -594,-225 c-483,-89 -538,-105 -762,-210 c-55,-26 -118,-53 -140,-60 c-31,-10 -39,-17 -38,-33 c2,-14 -30,-46 -110,-114 c-62,-52 -146,-126 -187,-165 l-74,-70 l-84,39 c-183,86 -415,227 -565,343 c-60,47 -82,57 -185,85 c-79,22 -122,39 -133,53 c-14,17 -32,21 -118,27 c-86,6 -107,11 -141,34 c-22,14 -62,31 -89,37 c-39,8 -53,17 -72,46 c-38,58 -51,62 -112,31 c-28,-14 -97,-41 -152,-58 c-62,-19 -207,-84 -380,-170 l-280,-139 l-200,12 l-199,13 l-101,-41 c-127,-51 -284,-144 -890,-530 c-985,-626 -1186,-745 -1645,-975 c-199,-100 -282,-137 -473,-209 c-60,-23 -137,-56 -173,-73 c-55,-27 -63,-34 -58,-52 c4,-12 8,-22 9,-24 c6,-7 167,21 513,89 c529,104 527,103 1692,754 c278,155 557,310 620,343 c147,77 307,145 326,138 c8,-3 14,-19 14,-35 c0,-44 -47,-92 -174,-175 c-227,-149 -742,-432 -869,-478 c-73,-26 -100,-42 -155,-91 l-66,-60 l175,7 c95,4 203,11 239,16 c36,5 200,57 364,115 c165,58 300,104 302,103 c1,-2 -9,-52 -22,-112 c-14,-60 -23,-110 -21,-112 c2,-3 44,18 93,46 c49,27 110,57 135,65 c57,19 95,56 171,167 c33,48 69,90 81,94 c33,10 174,151 220,219 c178,264 404,421 687,478 c41,9 136,21 210,28 c252,23 395,-13 710,-175 c107,-55 227,-116 267,-136 c40,-19 73,-38 73,-42 c0,-18 -68,-81 -148,-135 c-48,-33 -168,-106 -267,-163 c-99,-57 -241,-139 -315,-183 c-307,-183 -541,-264 -990,-346 c-295,-53 -609,-99 -1015,-146 c-121,-14 -274,-35 -340,-46 c-66,-11 -183,-29 -261,-39 c-196,-26 -289,-62 -394,-151 l-35,-30 l50,6 c74,8 391,31 905,65 c769,51 961,73 1340,150 c199,41 290,65 485,131 c333,113 454,162 730,299 c491,243 788,438 1139,746 c392,344 447,387 557,438 c92,42 158,56 257,55 c135,-2 133,4 53,-131 c-87,-147 -126,-195 -193,-235 c-29,-18 -161,-79 -293,-136 c-354,-153 -418,-187 -513,-267 c-95,-81 -154,-153 -208,-253 c-22,-39 -61,-98 -88,-131 c-58,-73 -103,-160 -111,-213 c-3,-21 -2,-65 2,-98 l8,-60 l103,123 c57,68 120,133 141,146 c20,13 69,64 109,114 c106,132 148,166 307,242 c134,64 207,95 590,245 c233,92 375,162 475,235 c48,36 199,176 350,326 c314,312 353,337 401,257 c12,-21 58,-95 101,-165 l79,-126 l72,-22 c328,-97 419,-130 362,-130 c-9,0 -30,-7 -47,-16 c-34,-18 -128,-102 -128,-115 c0,-11 146,-54 247,-73 c45,-9 180,-24 300,-35 c262,-24 983,-74 989,-68 c2,2 -1,17 -7,34 c-13,38 -92,76 -315,153 c-138,47 -156,56 -218,109 c-45,40 -82,63 -114,71 c-26,7 -83,32 -127,55 c-47,25 -138,59 -220,83 c-77,22 -171,51 -209,64 c-81,27 -81,27 -89,176 c-5,111 -6,111 118,53 c106,-50 179,-100 316,-217 c61,-51 116,-94 122,-94 c7,0 111,-18 232,-39 l220,-38 l198,-92 c291,-134 647,-272 852,-331 c321,-91 331,-97 468,-292 l48,-67 l-38,-11 c-21,-6 -112,-17 -203,-25 c-342,-29 -810,-150 -912,-235 c-28,-24 -31,-31 -22,-47 c10,-16 24,-18 115,-15 c104,3 287,-11 624,-49 c121,-14 205,-18 257,-14 l77,7 l123,-67 c99,-54 131,-67 163,-66 c22,1 168,-15 325,-34 c157,-20 356,-39 443,-42 c153,-6 157,-5 157,14 c0,51 -131,147 -420,308 c-251,139 -332,195 -375,258 c-19,29 -75,97 -125,152 c-49,55 -103,125 -120,156 c-29,54 -36,60 -187,150 c-87,52 -167,103 -178,115 c-11,11 -62,36 -114,54 c-51,19 -107,44 -125,56 c-17,13 -67,40 -111,61 c-238,111 -316,159 -597,369 c-203,152 -284,202 -520,320 c-187,94 -233,129 -302,234 c-25,37 -57,77 -73,89 c-15,12 -102,82 -193,156 c-91,74 -167,134 -170,134 c-3,0 -65,-22 -138,-50 z" id="svg_2" fill="#ffffff"/>
</g></g></svg>